<svg width="47" height="47" viewBox="0 0 47 47" fill="none" xmlns="http://www.w3.org/2000/svg">
<path d="M46.7095 24.6715C45.6876 20.4604 41.7398 17.9315 38.4723 17.3605C36.6087 17.0347 34.1549 17.3021 31.5738 17.9566L34.2264 15.1714C36.2608 13.1383 38.1866 11.2165 39.3637 9.33934C39.9158 8.4898 40.2122 7.52624 40.2241 6.54306C40.2261 6.02777 40.1283 5.51607 39.9352 5.03073C39.4072 3.73007 38.2114 2.73299 36.472 2.13975C34.8445 1.58272 33.2014 2.05898 31.6049 2.51853C30.2848 2.92238 29.0052 3.28166 27.974 2.9363C27.5422 2.79147 27.3124 2.4489 26.9769 1.90858C26.6415 1.36827 26.2936 0.808454 25.5823 0.454741C23.6007 -0.533984 21.3457 0.293203 19.8269 1.01177C15.7487 2.89731 13.9845 6.80486 13.9845 9.88523C13.9845 10.0774 13.9845 10.2724 14.0062 10.459C14.1335 12.183 15.0157 14.2384 16.2829 16.33C14.5901 15.7034 12.975 15.2466 11.5866 15.1436C8.06439 14.879 3.26248 16.2131 1.08827 19.7613C0.293129 21.0258 -0.607617 22.8918 0.55714 24.5852C0.960923 25.1784 1.61629 25.482 2.19712 25.7605C2.73135 26.0168 3.19415 26.2312 3.37119 26.5961C3.76255 27.4316 3.37119 28.4454 2.97052 29.5316C2.4953 30.7933 1.96106 32.2193 2.62264 33.6007C3.30286 35.0295 4.41792 36.0321 5.84048 36.5028C6.63139 36.7412 7.46849 36.8313 8.29986 36.7676C9.13122 36.7039 9.93912 36.4877 10.6734 36.1324C12.7669 35.2049 14.8883 33.6508 17.1371 32.016C18.6901 30.8741 20.8643 29.2642 21.9048 28.8075C22.9453 28.3507 23.3584 28.3925 23.3584 28.3925V24.4153H12.1768V22.4657H23.318V13.0519H25.4084V22.4741C28.0454 22.4741 35.6303 22.4741 35.8601 22.4741V24.4237H25.4084C25.4084 24.4237 25.4674 35.2857 25.4488 36.1213C25.4576 37.4048 25.3465 38.6867 25.1164 39.9536C24.9472 40.7851 24.583 41.575 24.048 42.2709C23.5587 42.8538 22.9106 43.3141 22.1657 43.6077C21.2867 43.9531 20.3618 44.1955 19.4138 44.3291L19.976 47C21.28 46.8603 22.5393 46.4861 23.6783 45.8999C24.594 45.3909 25.3922 44.7291 26.0296 43.9503C26.7754 42.989 27.2905 41.8993 27.5422 40.7502C27.8472 39.4404 27.9972 38.1054 27.9895 36.7674C27.9895 35.4083 27.9895 33.9154 27.9709 32.3112C28.2815 32.7178 28.5703 33.1245 28.8592 33.5367C30.4433 35.7648 31.931 37.8982 33.5586 39.366C34.801 40.48 36.3136 41.037 37.7828 40.9228C39.2519 40.8087 40.5782 40.0149 41.6063 38.6474C42.5567 37.3913 42.4666 35.8622 42.3766 34.3945C42.3051 33.1495 42.2306 31.9714 42.827 31.1749C43.0754 30.8462 43.4668 30.7348 44.088 30.5816C44.7092 30.4284 45.377 30.2613 45.9112 29.7461C47.3679 28.2672 47.0574 26.1421 46.7095 24.6715Z" fill="#87CCA1"/>
</svg>
