<svg width="80" height="80" viewBox="0 0 80 80" fill="none" xmlns="http://www.w3.org/2000/svg">
<path d="M29.6336 58.0288C29.6336 58.0288 22.705 54.5293 21.8513 53.3616C20.9976 52.1939 19.7346 50.4053 19.5935 48.3027C19.4524 46.2001 18.3482 42.002 19.5935 40.6015C20.8388 39.201 22.317 35.5426 22.3946 34.1421C22.4722 32.7415 23.1742 35.3874 23.1742 36.6327C23.1742 37.878 23.0966 40.8343 23.7951 41.0672C24.4936 41.3 26.1305 41.9244 25.9753 40.2875C25.8201 38.6506 25.2697 36.4069 26.2081 35.3874C27.1465 34.3679 28.6212 32.0395 28.6988 29.9405C28.7764 27.8414 28.5435 24.3383 30.1099 23.1706C31.6762 22.0029 33.5142 21.6149 34.2198 19.5899C34.9253 17.5649 35.3875 15.2331 35.6979 16.4784C36.0084 17.7237 36.1636 20.9904 35.6979 22.3134C35.2323 23.6363 33.8317 24.6488 33.9093 27.217C33.987 29.7852 34.8865 32.6639 35.9907 32.4311C37.0949 32.1983 38.6542 30.7166 38.6542 29.1608C38.6542 27.6051 38.4214 25.7389 39.1975 26.7513C39.9736 27.7638 40.4428 28.5399 40.2876 29.63C40.1324 30.7201 39.1975 31.6515 39.582 32.4311C39.9666 33.2107 43.1592 34.2973 43.1592 31.1858C43.1592 28.0743 44.2493 23.4811 45.2759 22.6273C46.3025 21.7736 47.2727 17.9565 46.112 14.464C44.9514 10.9715 45.5652 10.1036 46.112 11.1161C46.6588 12.1286 47.823 15.7869 48.9907 17.4203C50.1584 19.0537 50.7793 22.7896 49.922 24.7334C49.0648 26.6773 48.4439 28.3142 48.9907 30.0251C49.5375 31.7361 49.7845 32.9038 50.3207 34.9253C50.8569 36.9467 52.6455 38.9716 54.36 36.7174C56.0745 34.4631 55.1361 30.8824 57.3163 29.5595C59.4965 28.2365 59.8846 28.7798 59.1825 30.4132C58.4805 32.0466 57.1611 33.4471 57.5491 35.1616C57.9372 36.8761 57.5491 40.5309 56.6919 42.4748C55.8346 44.4186 55.1361 47.142 57.2387 46.4435C59.3413 45.745 61.1193 41.3071 61.5179 40.3722C61.9166 39.4373 62.5269 38.9611 62.3717 41.4623C62.2164 43.9635 61.6661 47.3784 59.8846 49.6327C58.103 51.8869 54.9033 56.3355 53.7356 57.1822C52.5679 58.0288 52.1022 59.5917 49.534 59.6693C46.9657 59.7469 44.3199 59.3588 43.3074 58.2582C42.2949 57.1575 41.8116 56.78 40.6933 57.1716C39.575 57.5632 39.2822 58.2581 38.3297 57.8771C37.3772 57.4961 36.5411 55.7605 35.0594 55.8557C33.5777 55.951 32.8051 55.7781 32.3359 56.5613C31.8667 57.3445 31.715 58.3428 29.6336 58.0288Z" fill="#FED105"/>
<path d="M36.1106 58.1841C35.7825 57.602 35.0522 57.4079 34.5936 57.2527C34.135 57.0975 33.3483 56.8611 33.0379 57.7184C32.7274 58.5756 31.4221 65.2644 31.4221 66.0264C31.4221 66.7884 32.0254 67.755 33.6199 67.5222C35.2145 67.2893 35.4509 64.9539 35.9942 62.6996C36.5374 60.4454 36.4422 58.7697 36.1106 58.1841Z" fill="#482C02"/>
<path d="M42.0832 58.8649C41.8222 58.7873 40.4498 58.6533 39.9454 58.8649C39.4409 59.0766 38.3861 59.7045 38.4461 61.4543C38.506 63.2041 38.5237 65.596 39.5538 66.552C40.2593 67.2046 43.3673 67.7938 43.9106 65.9488C44.4539 64.1037 43.9882 60.3854 43.4273 59.6728C43.0817 59.2614 42.6087 58.9771 42.0832 58.8649Z" fill="#482C02"/>
<path d="M48.8743 62.114C48.8743 62.114 47.7842 60.8899 47.5302 60.7735C47.2753 60.6716 46.9932 60.6606 46.7311 60.7422C46.469 60.8237 46.2429 60.993 46.0909 61.2215C45.6428 61.8812 45.156 62.3469 45.9921 63.2429C46.8282 64.139 50.0985 68.1466 50.9734 67.6386C51.8483 67.1306 52.9983 66.3368 51.6789 65.1303C50.6841 64.1824 49.7475 63.1751 48.8743 62.114Z" fill="#482C02"/>
<path d="M30.9176 59.761C30.5648 59.3729 29.6934 59.0237 29.1537 58.752C28.6139 58.4804 27.3898 58.4204 26.9947 58.6145C26.5996 58.8085 23.8443 60.5795 24.0772 61.0839C24.31 61.5884 26.5678 62.8161 27.7355 62.7385C28.9032 62.6609 30.205 61.6272 30.5154 61.1439C30.8259 60.6606 31.2668 60.1314 30.9176 59.761Z" fill="#482C02"/>
<path d="M25.7529 57.5632C25.7882 57.0799 23.9643 55.9686 23.5551 56.0462C23.1458 56.1238 22.1933 57.0587 22.1757 57.4573C22.1581 57.856 22.5038 58.4345 23.3399 58.5157C24.176 58.5968 25.7035 58.1276 25.7529 57.5632Z" fill="#482C02"/>
</svg>
