<svg width="36" height="35" viewBox="0 0 36 35" fill="none" xmlns="http://www.w3.org/2000/svg">
<path d="M8.38209 12.0542C8.043 12.0365 7.38428 11.8268 7.03129 12.625C6.67831 13.4232 6.8951 14.6887 7.07576 14.325C7.25643 13.9612 7.287 12.764 7.58162 12.8094C7.87624 12.8549 7.99575 13.6 8.15696 14.032C8.31817 14.4639 8.7601 14.6912 8.71285 14.1406C8.6656 13.5899 8.18476 12.3724 8.56276 12.572C8.94076 12.7715 9.39659 14.1532 9.73012 14.1608C10.0636 14.1684 9.95525 13.7314 9.53556 13.1024C9.11586 12.4735 9.00191 12.0845 8.38209 12.0542Z" fill="#E9993E"/>
<path d="M6.54491 15.4693C6.54491 15.7219 6.46987 19.9023 6.69222 20.6197C6.91458 21.337 6.77005 23.2643 6.69222 23.9033C6.6144 24.5424 6.06129 26.2221 6.11966 26.4495C6.17803 26.6768 6.49766 26.8536 6.63942 25.8508C6.78117 24.848 7.0202 25.381 7.06467 25.727C7.10914 26.0731 7.34261 27.2426 7.47324 26.7096C7.60388 26.1767 7.34261 24.6889 7.75119 25.1234C8.15976 25.5578 8.44326 26.7475 8.80737 26.6541C9.17147 26.5606 9.01027 25.8458 8.72121 25.2446C8.43214 24.6434 8.50719 24.4414 8.91021 24.795C9.31322 25.1486 9.80518 26.0125 9.80518 25.4644C9.80518 24.9162 8.87129 23.3603 8.64338 22.6859C8.41547 22.0114 7.85958 19.8619 7.85958 19.3491C7.85958 18.8364 7.9791 15.5022 8.11251 15.2546C8.24592 15.0071 8.13475 14.8858 7.90128 14.5272C7.6678 14.1685 7.68448 13.5168 7.60388 13.8047C7.52327 14.0927 7.55663 14.5196 7.27868 14.7065C7.00074 14.8934 6.77005 14.7747 6.66999 14.8176C6.56993 14.8606 6.55047 15.2672 6.54491 15.4693Z" fill="#E9993E"/>
<path d="M34.5894 27.1288C33.964 26.217 31.7043 22.6327 32.3492 22.1301C32.994 21.6274 34.1447 21.7082 34.5727 21.3723C35.0007 21.0363 32.9356 18.7428 32.4576 16.6994C32.0295 14.8782 32.0434 14.426 32.0518 14.3553C32.0129 14.6281 31.3291 19.3743 31.4403 19.781C31.5515 20.1876 31.9712 21.2359 31.4597 21.3369C30.9483 21.438 30.9039 20.9303 30.7121 21.2384C30.5203 21.5466 30.1145 21.7891 29.995 21.4152C29.8755 21.0414 29.8949 20.8141 29.314 21.1399C28.7331 21.4658 28.5997 21.2713 28.861 20.559C29.1222 19.8466 29.9867 17.9421 30.1145 17.0378C30.2424 16.1336 29.6253 11.5667 29.7476 11.3015C29.8699 11.0363 30.0812 10.9125 30.2285 11.5541C30.3758 12.1957 30.6871 16.1992 30.6509 16.6539C30.6148 17.1086 30.0144 19.397 29.717 19.9376C29.4196 20.4781 29.1028 20.66 29.2001 20.7231C29.3529 20.8242 29.7782 20.3973 30.0478 20.0639C30.3174 19.7304 30.2479 19.9174 30.259 20.2255C30.2702 20.5337 30.1618 21.2132 30.3257 20.9277C30.4897 20.6423 30.4925 19.8441 30.6898 20.0512C30.8872 20.2584 31.0678 21.049 31.1901 20.809C31.3124 20.5691 31.0706 19.7052 31.0956 19.397C31.1207 19.0889 31.4181 16.0401 31.4792 15.7698C31.4792 15.7698 32.1935 12.5518 31.1484 10.8013C30.1034 9.05089 29.7949 8.97511 29.9589 8.7983C30.1228 8.62149 30.7232 8.47499 30.9761 7.72226C31.2291 6.96954 30.7843 4.64065 30.9094 4.51183C31.7246 4.058 32.5855 3.6757 33.4804 3.37012C34.078 3.20593 34.9451 2.97607 34.9062 2.56182C34.8673 2.14757 33.7139 2.83715 33.6027 2.79421C33.4915 2.75127 34.128 2.18041 34.6811 1.8773C35.2342 1.57419 34.959 1.21046 34.7089 1.33171C34.4588 1.45295 33.4721 2.13495 33.3664 2.04149C33.2608 1.94803 33.4832 1.5363 34.1169 1.1852C34.7506 0.8341 34.8312 0.344073 34.4476 0.427428C34.0641 0.510783 33.1218 1.36202 32.9579 1.31655C32.7939 1.27108 33.4609 0.493103 33.3887 0.232934C33.3164 -0.0272351 32.9884 -0.156058 32.6632 0.318814C32.338 0.793685 31.6098 2.53909 31.507 2.17283C31.4042 1.80658 31.6376 1.10185 31.3097 1.18268C30.9817 1.26351 30.6871 2.0819 30.6593 2.38754C30.6315 2.69317 30.7037 3.21351 30.4675 3.09479C30.2312 2.97607 29.7004 2.3547 29.3335 2.26124C28.9666 2.16778 28.9833 1.85457 29.2946 1.81668C29.6059 1.77879 30.0784 1.22056 29.264 0.59919C28.4496 -0.022184 26.4985 0.301133 26.3345 0.907352C26.1705 1.51357 27.0405 1.69291 27.2295 1.91772C27.4185 2.14252 27.3573 2.40522 26.9515 2.39511C26.5904 2.43942 26.2535 2.58485 25.9875 2.81118C25.7215 3.03752 25.5397 3.33352 25.4673 3.65807C25.2811 4.51941 25.5868 5.81015 25.3589 6.05011C25.131 6.29007 21.3121 7.75257 21.0313 7.73489C20.7506 7.71721 20.7534 7.59344 21.0147 6.82556C21.2759 6.05769 21.3204 5.66364 21.5483 5.406C21.7762 5.14836 22.8491 4.84525 22.6601 4.69622C22.4711 4.54719 21.2148 4.23398 21.6734 4.16325C22.132 4.09253 23.1965 3.97886 22.8963 3.75153C22.5962 3.5242 21.287 2.95334 21.704 2.91545C22.1209 2.87756 23.3049 3.14784 23.0075 2.88767C22.7101 2.6275 22.0792 2.49615 21.7734 2.31934C21.4677 2.14252 20.7089 1.3216 20.4893 1.2534C20.109 1.06623 19.6788 0.978786 19.2469 1.00081C18.6188 1.05891 17.2624 1.28876 16.9206 1.75858C16.5787 2.2284 16.5231 2.433 16.0867 2.51636C15.6504 2.59971 14.7415 3.24382 14.4969 3.91319C14.2523 4.58255 13.6436 7.95465 13.8743 7.91171C14.105 7.86877 14.7721 7.10089 14.9333 7.1994C15.0945 7.29791 14.5719 8.78315 14.9333 8.82609C15.2946 8.86903 16.045 8.11631 16.4258 8.34869C16.8066 8.58107 17.8656 8.67453 17.9823 9.11152C18.099 9.5485 17.5487 10.0057 17.1763 10.185C16.8038 10.3644 14.0605 11.5768 14.0188 11.8294C13.9771 12.082 14.3412 12.9332 14.4886 12.961C14.6359 12.9888 17.3236 11.789 17.5821 11.8395C17.8406 11.89 17.8767 12.3447 17.8211 12.7993C17.7655 13.254 17.5154 13.7213 18.0184 13.5571C18.5215 13.3929 18.994 13.403 19.2108 13.5218C19.3147 13.5761 19.3925 13.6637 19.429 13.7674C19.4655 13.8711 19.4581 13.9835 19.4081 14.0825C19.3136 14.3174 19.4248 14.3351 19.6416 14.4412C19.8584 14.5473 19.9196 14.9944 19.7028 15.0474C19.486 15.1005 19.4248 15.1106 19.3943 15.3682C19.4011 15.4862 19.3698 15.6034 19.304 15.7053C19.2383 15.8072 19.1412 15.8894 19.0246 15.9416C18.7272 16.0906 17.5404 16.3179 17.5265 16.4872C17.5126 16.6564 17.1123 22.0088 17.2958 22.0745C17.4792 22.1402 19.5749 21.6501 19.7973 21.8724C20.0196 22.0947 20.3365 27.7022 20.4338 28.359C20.5528 29.0856 20.6289 29.8175 20.6617 30.5515C20.6228 30.7712 20.4615 30.8975 19.7472 31.087C19.0329 31.2764 19.1024 31.8119 18.4826 31.7866C17.8628 31.7614 17.129 31.966 16.9317 31.3875C16.7343 30.8091 16.0367 27.7426 15.9617 26.4014C15.8866 25.0601 16.1201 20.9808 16.0006 19.4981C15.8811 18.0154 15.1139 14.176 13.7326 12.2462C12.3512 10.3164 12.3067 10.819 12.4401 10.4427C12.5735 10.0663 13.2906 9.98801 13.1794 8.16935C13.0683 6.35069 12.2873 5.79247 12.1844 5.47673C12.0816 5.16099 12.693 4.14304 11.7091 3.96118C10.7248 3.78463 9.70413 3.89881 8.79629 4.28702C8.02917 4.67601 7.85962 4.12789 7.4844 3.76416C7.08067 3.39861 6.56029 3.15817 5.99741 3.07711C5.60829 2.99881 4.51319 2.76895 4.05181 4.1582C4.05181 4.1582 3.73217 6.34564 3.03454 7.25497C2.3369 8.1643 0.130034 9.04079 0.255108 9.20245C0.380182 9.36411 1.08894 9.07363 1.20011 9.40452C1.31129 9.73541 0.605316 9.96275 0.785979 10.7483C0.966641 11.5339 1.56978 13.9032 1.74488 13.6253C1.91999 13.3475 1.84494 12.226 2.22572 12.4078C2.6065 12.5897 2.70934 13.3525 2.96783 13.4182C3.22632 13.4839 2.8372 12.0971 3.16239 11.5894C3.48758 11.0817 4.27416 10.3846 4.49374 9.23276C4.71331 8.08094 4.8773 6.27997 5.44708 5.76973C6.01686 5.2595 6.87293 4.97912 7.05915 5.21656C7.24537 5.45399 6.35317 6.09052 6.07523 6.9266C5.75242 7.96549 5.8349 9.07386 6.3087 10.0638C6.998 11.4985 7.77902 11.6046 8.32101 11.6778C8.863 11.7511 8.78517 11.5212 9.26879 12.0542C9.75241 12.5872 10.4667 13.9183 10.4751 14.2795C10.4834 14.6407 10.1804 15.0979 9.79133 14.7847C9.40221 14.4715 9.19653 14.0067 9.17985 14.4513C9.16318 14.8959 9.20487 15.2394 9.02698 15.1434C8.8491 15.0474 8.69901 14.8908 8.71569 15.0929C8.71569 15.0929 9.06034 19.3187 9.51338 21.0869C9.96643 22.855 11.106 27.778 11.2839 28.6646C11.4618 29.5512 12.3456 32.7061 11.5896 33.3451C10.8336 33.9842 9.84413 34.3555 9.72184 34.6308C9.59954 34.9061 10.0804 35.1133 10.7502 34.9314C11.4201 34.7495 13.1878 34.0524 13.4463 32.7919C13.7048 31.5315 11.4284 23.4208 11.862 23.0394C12.2956 22.658 13.0933 22.1654 13.8576 22.6302C14.622 23.095 15.5253 31.5189 15.7337 31.9003C15.9422 32.2817 16.4647 33.3679 18.099 33.0723C19.7333 32.7768 19.6666 32.36 19.8779 32.2388C20.0891 32.1175 21.137 32.2388 21.2231 31.7841C21.3093 31.3294 21.7206 30.6752 21.7401 29.2582C21.7595 27.8412 21.1842 21.635 21.4844 21.6097C21.7846 21.5845 22.6128 21.3571 22.7462 21.5617C22.8797 21.7663 24.0109 31.5189 24.3027 31.6325C24.9183 31.9081 25.5905 32.0638 26.2761 32.0897C27.2795 32.115 27.9438 31.8371 27.0849 31.4608C26.2261 31.0844 25.5757 31.4482 25.395 30.0185C25.2144 28.5888 24.3111 21.4885 24.5612 21.3698C24.9797 21.2477 25.4082 21.1556 25.8425 21.0944C25.8425 21.0944 24.4361 15.1484 24.1915 13.8956C23.947 12.6427 22.0041 9.49293 22.271 9.28328C22.5378 9.07363 25.0504 7.83593 25.2088 7.84603C25.3672 7.85614 27.21 9.1292 27.1544 9.30601C27.0988 9.48282 23.5578 11.3848 23.5967 11.5238C23.6357 11.6627 24.0192 13.062 24.2388 12.8473C24.4584 12.6326 25.6007 11.6197 25.7313 11.8572C25.862 12.0946 25.8536 19.8618 25.8536 19.8618C26.0085 20.2908 26.1393 20.7266 26.2455 21.1677C26.2455 21.3041 25.8703 21.4607 25.8703 21.4607C25.8703 21.4607 25.7869 21.8345 26.0232 22.0038C26.3469 22.1822 26.6873 22.3344 27.0405 22.4584C27.0405 22.4584 28.0605 25.8634 28.3329 26.798C28.6053 27.7325 29.1084 29.5007 28.0688 29.8846C27.0293 30.2686 26.1816 30.8041 27.0238 30.9556C27.8659 31.1072 29.8671 31.2082 29.995 30.2963C30.1228 29.3845 28.3107 22.9131 28.5803 22.7034C28.8499 22.4938 30.1256 22.2639 30.4008 22.5569C30.676 22.85 33.0412 27.5835 33.0996 28.0912C33.158 28.5989 33.3442 29.3415 31.9323 29.973C30.5203 30.6045 31.7627 30.7838 32.1713 30.7308C32.5799 30.6778 34.9118 29.8265 35.148 29.43C35.3843 29.0334 35.2148 28.0407 34.5894 27.1288ZM19.9918 6.76747C19.941 7.03809 19.784 7.28284 19.55 7.45649C19.316 7.63015 19.0208 7.72096 18.7188 7.71216C18.0101 7.68943 17.0512 7.29791 17.3291 6.99227C17.6071 6.68664 18.2491 6.87103 18.6105 6.77252C18.9718 6.67401 19.1385 6.53508 19.5971 6.03748C19.7723 5.85056 20.1113 6.26228 19.9918 6.76747ZM11.9315 9.79856C11.6535 9.69753 10.7308 9.27823 10.7947 8.97512C10.8586 8.67201 11.6285 8.92965 12.0538 8.79072C12.479 8.6518 12.543 8.35627 12.732 8.3689C12.921 8.38153 12.8765 8.57349 12.8765 8.57349C12.8579 8.87402 12.7866 9.16992 12.6653 9.44999C12.4957 9.78088 12.2233 9.8996 11.9426 9.80109L11.9315 9.79856ZM27.7409 8.16935C27.4678 8.2908 27.158 8.32643 26.8602 8.27066C26.5625 8.21489 26.2935 8.07087 26.0955 7.86119C25.9231 7.6768 25.8008 7.28528 25.9537 7.18677C26.1066 7.08826 26.4012 7.24234 27.0293 7.22971C27.3667 7.2273 27.7029 7.19344 28.0327 7.12867C28.2995 7.06553 28.2384 7.91676 27.7409 8.16935Z" fill="#E9993E"/>
<path d="M32.0547 14.3554V14.3402C32.0533 14.3452 32.0533 14.3504 32.0547 14.3554Z" fill="#95358F"/>
<path d="M18.4882 13.7542C18.0965 13.8468 17.7334 14.0196 17.4264 14.2593C17.1334 14.5369 16.9675 14.9053 16.9623 15.2899C16.9623 15.6663 17.1735 16.1437 17.7961 16.0477C18.4187 15.9517 19.1553 15.8178 18.9079 15.5779C18.6605 15.3379 18.2353 15.3253 18.4937 15.1661C18.7522 15.007 19.3276 15.0575 19.3748 14.8403C19.4221 14.6231 18.8968 14.5877 18.6383 14.5069C18.3798 14.4261 18.2936 14.181 18.5799 14.133C18.8662 14.0851 19.1358 13.8451 18.9496 13.7819C18.7998 13.7426 18.6424 13.7331 18.4882 13.7542Z" fill="#E9993E"/>
</svg>
