<svg width="80" height="80" viewBox="0 0 80 80" fill="none" xmlns="http://www.w3.org/2000/svg">
<path d="M40.0019 79.365C61.7416 79.365 79.3651 61.7415 79.3651 40.0018C79.3651 18.2621 61.7416 0.63855 40.0019 0.63855C18.2622 0.63855 0.638672 18.2621 0.638672 40.0018C0.638672 61.7415 18.2622 79.365 40.0019 79.365Z" fill="#96D5EB"/>
<path d="M25.7107 35.0593C25.2803 35.0346 24.4442 34.7418 23.9962 35.8566C23.5481 36.9714 23.8233 38.7388 24.0526 38.2308C24.2819 37.7228 24.3207 36.0506 24.6947 36.1141C25.0686 36.1776 25.2203 37.2183 25.4249 37.8216C25.6295 38.4248 26.1905 38.7424 26.1305 37.9733C26.0705 37.2042 25.4602 35.5038 25.94 35.7825C26.4198 36.0612 26.9983 37.9909 27.4217 38.0015C27.845 38.0121 27.7074 37.4018 27.1747 36.5234C26.642 35.6449 26.4974 35.1017 25.7107 35.0593Z" fill="#E9993E"/>
<path d="M23.3787 39.8289C23.3787 40.1817 23.2835 46.0202 23.5657 47.0221C23.8479 48.024 23.6645 50.7157 23.5657 51.6083C23.4669 52.5008 22.7649 54.8468 22.839 55.1643C22.913 55.4818 23.3187 55.7287 23.4987 54.3282C23.6786 52.9277 23.982 53.672 24.0384 54.1553C24.0949 54.6386 24.3912 56.272 24.557 55.5277C24.7228 54.7833 24.3912 52.7054 24.9098 53.3122C25.4284 53.919 25.7882 55.5806 26.2503 55.45C26.7125 55.3195 26.5079 54.3211 26.141 53.4815C25.7741 52.6419 25.8693 52.3597 26.3809 52.8536C26.8924 53.3475 27.5168 54.554 27.5168 53.7884C27.5168 53.0229 26.3315 50.8498 26.0422 49.9079C25.7529 48.9659 25.0474 45.9638 25.0474 45.2476C25.0474 44.5315 25.1991 39.8748 25.3684 39.5291C25.5377 39.1833 25.3966 39.014 25.1003 38.5131C24.8039 38.0121 24.8251 37.1019 24.7228 37.5041C24.6205 37.9063 24.6628 38.5025 24.3101 38.7635C23.9573 39.0246 23.6645 38.8588 23.5375 38.9188C23.4105 38.9787 23.3858 39.5467 23.3787 39.8289Z" fill="#E9993E"/>
<path d="M58.9741 56.1133C58.1804 54.8397 55.3123 49.8338 56.1307 49.1317C56.9492 48.4297 58.4097 48.5426 58.9529 48.0734C59.4962 47.6042 56.8751 44.4009 56.2683 41.547C55.725 39.0034 55.7426 38.3719 55.7532 38.2732C55.7038 38.6542 54.836 45.2829 54.9771 45.8509C55.1182 46.4189 55.6509 47.8829 55.0018 48.024C54.3527 48.1651 54.2962 47.456 54.0528 47.8864C53.8094 48.3168 53.2943 48.6555 53.1427 48.1334C52.991 47.6112 53.0157 47.2937 52.2783 47.7488C51.541 48.2039 51.3717 47.9323 51.7033 46.9374C52.0349 45.9426 53.1321 43.2826 53.2944 42.0197C53.4566 40.7567 52.6735 34.3785 52.8287 34.008C52.9839 33.6376 53.252 33.4648 53.439 34.3608C53.626 35.2569 54.0211 40.8484 53.9752 41.4835C53.9294 42.1185 53.1673 45.3146 52.7899 46.0696C52.4124 46.8245 52.0102 47.0785 52.1337 47.1667C52.3277 47.3079 52.8675 46.7117 53.2097 46.246C53.5519 45.7803 53.4637 46.0414 53.4778 46.4718C53.4919 46.9022 53.3543 47.8511 53.5625 47.4525C53.7706 47.0539 53.7741 45.9391 54.0246 46.2283C54.2751 46.5176 54.5044 47.6218 54.6596 47.2867C54.8148 46.9515 54.5079 45.745 54.5397 45.3146C54.5714 44.8843 54.9489 40.6262 55.0265 40.2487C55.0265 40.2487 55.9331 35.7543 54.6067 33.3095C53.2802 30.8648 52.8886 30.7589 53.0968 30.512C53.3049 30.265 54.0669 30.0604 54.388 29.0091C54.709 27.9579 54.1445 24.7052 54.3033 24.5253C55.338 23.8915 56.4307 23.3575 57.5665 22.9307C58.325 22.7014 59.4257 22.3804 59.3763 21.8018C59.3269 21.2233 57.8629 22.1864 57.7217 22.1264C57.5806 22.0664 58.3885 21.2691 59.0905 20.8458C59.7926 20.4225 59.4433 19.9145 59.1258 20.0838C58.8083 20.2531 57.5559 21.2056 57.4219 21.0751C57.2878 20.9446 57.57 20.3695 58.3744 19.8792C59.1787 19.3888 59.281 18.7044 58.7942 18.8208C58.3074 18.9373 57.1114 20.1261 56.9033 20.0626C56.6952 19.9991 57.5418 18.9126 57.4501 18.5492C57.3584 18.1858 56.9421 18.0059 56.5293 18.6691C56.1166 19.3324 55.1923 21.7701 55.0618 21.2586C54.9312 20.747 55.2276 19.7628 54.8113 19.8757C54.395 19.9885 54.0211 21.1316 53.9858 21.5584C53.9505 21.9853 54.0422 22.712 53.7424 22.5462C53.4425 22.3804 52.7687 21.5126 52.303 21.382C51.8374 21.2515 51.8585 20.8141 52.2536 20.7611C52.6488 20.7082 53.2485 19.9286 52.2148 19.0607C51.1812 18.1929 48.7047 18.6445 48.4965 19.4911C48.2884 20.3378 49.3926 20.5883 49.6325 20.9022C49.8724 21.2162 49.7948 21.5831 49.2797 21.569C48.8214 21.6309 48.3937 21.834 48.0561 22.1501C47.7185 22.4662 47.4877 22.8796 47.3959 23.3329C47.1595 24.5359 47.5476 26.3386 47.2583 26.6737C46.969 27.0089 42.1218 29.0515 41.7655 29.0268C41.4092 29.0021 41.4127 28.8292 41.7443 27.7568C42.0759 26.6843 42.1324 26.134 42.4217 25.7741C42.7109 25.4143 44.0727 24.991 43.8328 24.7828C43.5929 24.5747 41.9983 24.1372 42.5804 24.0385C43.1625 23.9397 44.5136 23.7809 44.1326 23.4634C43.7516 23.1459 42.09 22.3486 42.6192 22.2957C43.1484 22.2428 44.6512 22.6203 44.2738 22.2569C43.8963 21.8936 43.0955 21.7101 42.7074 21.4632C42.3194 21.2162 41.3563 20.0697 41.0776 19.9744C40.5948 19.713 40.0488 19.5909 39.5006 19.6217C38.7034 19.7028 36.9818 20.0238 36.5479 20.68C36.1139 21.3362 36.0434 21.6219 35.4895 21.7383C34.9357 21.8548 33.7821 22.7543 33.4716 23.6892C33.1612 24.6241 32.3886 29.3337 32.6814 29.2737C32.9742 29.2138 33.8209 28.1413 34.0255 28.2789C34.2301 28.4165 33.5669 30.4908 34.0255 30.5508C34.4841 30.6108 35.4366 29.5595 35.9199 29.884C36.4032 30.2086 37.7473 30.3391 37.8955 30.9494C38.0437 31.5597 37.3451 32.1983 36.8724 32.4487C36.3997 32.6992 32.9178 34.3926 32.8648 34.7453C32.8119 35.0981 33.2741 36.287 33.461 36.3258C33.648 36.3646 37.0594 34.6889 37.3875 34.7595C37.7156 34.83 37.7614 35.465 37.6909 36.1C37.6203 36.735 37.3028 37.3877 37.9413 37.1584C38.5799 36.9291 39.1796 36.9432 39.4548 37.109C39.5866 37.1848 39.6854 37.3072 39.7317 37.4521C39.778 37.5969 39.7686 37.7539 39.7053 37.8921C39.5853 38.2202 39.7264 38.2449 40.0016 38.3931C40.2768 38.5413 40.3544 39.1657 40.0792 39.2398C39.804 39.3139 39.7264 39.328 39.6876 39.6878C39.6963 39.8525 39.6565 40.0162 39.5731 40.1586C39.4897 40.3009 39.3664 40.4157 39.2184 40.4886C38.8409 40.6968 37.3346 41.0143 37.3169 41.2506C37.2993 41.487 36.7913 48.9624 37.0241 49.0541C37.257 49.1458 39.9169 48.4614 40.1991 48.7719C40.4814 49.0823 40.8835 56.9141 41.007 57.8313C41.1581 58.8461 41.2546 59.8683 41.2963 60.8934C41.2469 61.2003 41.0423 61.3767 40.1356 61.6413C39.229 61.9059 39.3172 62.6538 38.5305 62.6185C37.7438 62.5832 36.8125 62.869 36.562 62.0611C36.3115 61.2533 35.426 56.9705 35.3308 55.0972C35.2355 53.224 35.5319 47.5266 35.3802 45.4558C35.2285 43.3849 34.2548 38.0227 32.5015 35.3274C30.7482 32.6322 30.6917 33.3342 30.861 32.8086C31.0304 32.2829 31.9406 32.1736 31.7994 29.6336C31.6583 27.0935 30.667 26.3139 30.5365 25.8729C30.406 25.4319 31.1821 24.0102 29.9332 23.7562C28.6839 23.5097 27.3884 23.6691 26.2361 24.2113C25.2624 24.7546 25.0472 23.9891 24.571 23.4811C24.0585 22.9705 23.398 22.6347 22.6836 22.5215C22.1897 22.4121 20.7997 22.0911 20.2141 24.0314C20.2141 24.0314 19.8084 27.0865 18.923 28.3565C18.0375 29.6265 15.2364 30.8507 15.3952 31.0764C15.5539 31.3022 16.4535 30.8965 16.5946 31.3587C16.7357 31.8208 15.8397 32.1383 16.069 33.2354C16.2983 34.3326 17.0638 37.6417 17.2861 37.2536C17.5083 36.8656 17.4131 35.2992 17.8964 35.5532C18.3797 35.8072 18.5102 36.8726 18.8383 36.9643C19.1664 37.0561 18.6725 35.1193 19.0852 34.4102C19.498 33.7011 20.4964 32.7274 20.7751 31.1188C21.0538 29.5101 21.2619 26.9948 21.9851 26.2821C22.7083 25.5695 23.7949 25.1779 24.0312 25.5096C24.2676 25.8412 23.1352 26.7302 22.7824 27.8979C22.3726 29.3488 22.4773 30.8968 23.0787 32.2794C23.9536 34.2832 24.9449 34.4314 25.6328 34.5337C26.3208 34.636 26.222 34.315 26.8358 35.0593C27.4497 35.8037 28.3563 37.6628 28.3669 38.1673C28.3775 38.6718 27.9929 39.3103 27.499 38.8729C27.0052 38.4354 26.7441 37.7863 26.7229 38.4072C26.7018 39.0281 26.7547 39.5079 26.5289 39.3738C26.3031 39.2398 26.1126 39.021 26.1338 39.3033C26.1338 39.3033 26.5712 45.2053 27.1463 47.6747C27.7213 50.1442 29.1677 57.0199 29.3935 58.2582C29.6193 59.4964 30.7411 63.9026 29.7815 64.7952C28.822 65.6877 27.5661 66.2063 27.4109 66.5908C27.2556 66.9754 27.8659 67.2646 28.7161 67.0106C29.5663 66.7566 31.81 65.783 32.1381 64.0226C32.4662 62.2622 29.5769 50.9344 30.1273 50.4017C30.6776 49.869 31.6901 49.1811 32.6602 49.8302C33.6304 50.4794 34.7769 62.2446 35.0415 62.7773C35.3061 63.31 35.9693 64.8269 38.0437 64.4142C40.118 64.0014 40.0333 63.4193 40.3014 63.25C40.5696 63.0807 41.8995 63.25 42.0089 62.615C42.1183 61.98 42.6404 61.0663 42.6651 59.0872C42.6898 57.1081 41.9595 48.4403 42.3405 48.405C42.7215 48.3697 43.7728 48.0522 43.9421 48.338C44.1115 48.6237 45.5473 62.2446 45.9177 62.4033C46.6991 62.7882 47.5522 63.0056 48.4224 63.0419C49.696 63.0771 50.5391 62.6891 49.449 62.1634C48.359 61.6378 47.5334 62.1458 47.3041 60.1491C47.0748 58.1523 45.9283 48.2357 46.2458 48.0699C46.777 47.8994 47.3208 47.7708 47.8721 47.6853C47.8721 47.6853 46.087 39.3809 45.7766 37.6311C45.4662 35.8813 43.0002 31.4821 43.3389 31.1893C43.6776 30.8965 46.8667 29.1679 47.0678 29.182C47.2689 29.1961 49.6078 30.9741 49.5372 31.2211C49.4667 31.468 44.9723 34.1245 45.0217 34.3185C45.071 34.5125 45.5579 36.4669 45.8366 36.1671C46.1153 35.8672 47.5652 34.4525 47.731 34.7842C47.8968 35.1158 47.8862 45.9638 47.8862 45.9638C48.0828 46.5629 48.2488 47.1716 48.3836 47.7876C48.3836 47.9781 47.9074 48.1969 47.9074 48.1969C47.9074 48.1969 47.8016 48.719 48.1014 48.9553C48.5123 49.2046 48.9444 49.4171 49.3926 49.5903C49.3926 49.5903 50.6873 54.3458 51.033 55.6511C51.3788 56.9564 52.0173 59.4259 50.6979 59.9621C49.3785 60.4983 48.3025 61.2462 49.3714 61.4579C50.4404 61.6695 52.9804 61.8107 53.1427 60.5371C53.3049 59.2636 51.0048 50.2253 51.347 49.9325C51.6892 49.6397 53.3085 49.3187 53.6577 49.7279C54.007 50.1372 57.0091 56.7483 57.0832 57.4573C57.1573 58.1664 57.3937 59.2036 55.6015 60.0856C53.8094 60.9675 55.3863 61.218 55.9049 61.1439C56.4235 61.0698 59.3833 59.8809 59.6832 59.3271C59.9831 58.7732 59.7679 57.3868 58.9741 56.1133ZM40.4461 27.6756C40.3815 28.0536 40.1823 28.3954 39.8853 28.638C39.5883 28.8805 39.2136 29.0073 38.8304 28.995C37.9308 28.9633 36.7137 28.4165 37.0665 27.9896C37.4192 27.5627 38.2342 27.8203 38.6928 27.6827C39.1514 27.5451 39.3631 27.3511 39.9451 26.6561C40.1674 26.395 40.5978 26.9701 40.4461 27.6756ZM30.2155 31.909C29.8627 31.7679 28.6914 31.1823 28.7726 30.7589C28.8537 30.3356 29.8309 30.6954 30.3707 30.5014C30.9104 30.3074 30.9916 29.8946 31.2315 29.9123C31.4714 29.9299 31.4149 30.198 31.4149 30.198C31.3914 30.6177 31.3008 31.031 31.1468 31.4222C30.9316 31.8843 30.5859 32.0501 30.2296 31.9125L30.2155 31.909ZM50.2816 29.6336C49.935 29.8032 49.5418 29.8529 49.1639 29.7751C48.7859 29.6972 48.4445 29.496 48.1931 29.2032C47.9744 28.9456 47.8192 28.3988 48.0132 28.2612C48.2073 28.1237 48.5812 28.3389 49.3785 28.3212C49.8067 28.3179 50.2335 28.2706 50.652 28.1801C50.9907 28.0919 50.9131 29.2808 50.2816 29.6336Z" fill="#E9993E"/>
<path d="M55.7569 38.2731V38.252C55.7555 38.2589 55.7555 38.2661 55.7569 38.2731V38.2731Z" fill="#E9993E"/>
<path d="M38.5378 37.4335C38.0407 37.5629 37.5798 37.8042 37.1902 38.139C36.8183 38.5267 36.6077 39.0412 36.6011 39.5784C36.6011 40.104 36.8692 40.7708 37.6594 40.6367C38.4496 40.5027 39.3845 40.3157 39.0705 39.9806C38.7566 39.6454 38.2168 39.6278 38.5449 39.4055C38.873 39.1833 39.6032 39.2538 39.6632 38.9504C39.7232 38.6471 39.0564 38.5977 38.7283 38.4848C38.4003 38.3719 38.2909 38.0297 38.6543 37.9627C39.0176 37.8956 39.3598 37.5605 39.1235 37.4723C38.9333 37.4173 38.7336 37.404 38.5378 37.4335Z" fill="#E9993E"/>
</svg>
