<svg width="79" height="79" viewBox="0 0 79 79" fill="none" xmlns="http://www.w3.org/2000/svg">
<path d="M39.3632 78.7265C61.1029 78.7265 78.7265 61.1029 78.7265 39.3632C78.7265 17.6235 61.1029 0 39.3632 0C17.6235 0 0 17.6235 0 39.3632C0 61.1029 17.6235 78.7265 39.3632 78.7265Z" fill="#202844"/>
<path d="M28.995 57.3903C28.995 57.3903 22.0664 53.8907 21.2126 52.723C20.3589 51.5553 19.096 49.7667 18.9548 47.6641C18.8137 45.5616 17.7095 41.3635 18.9548 39.9629C20.2002 38.5624 21.6783 34.9041 21.7559 33.5035C21.8335 32.103 22.5356 34.7488 22.5356 35.9942C22.5356 37.2395 22.4579 40.1958 23.1565 40.4286C23.855 40.6615 25.4919 41.2859 25.3366 39.649C25.1814 38.0121 24.6311 35.7684 25.5695 34.7489C26.5079 33.7293 27.9825 31.401 28.0601 29.3019C28.1377 27.2029 27.9049 23.6998 29.4712 22.5321C31.0376 21.3644 32.8756 20.9763 33.5811 18.9513C34.2867 16.9264 34.7488 14.5945 35.0593 15.8398C35.3697 17.0851 35.5249 20.3519 35.0593 21.6748C34.5936 22.9977 33.1931 24.0102 33.2707 26.5785C33.3483 29.1467 34.2479 32.0254 35.3521 31.7926C36.4563 31.5597 38.0156 30.078 38.0156 28.5223C38.0156 26.9665 37.7827 25.1003 38.5588 26.1128C39.335 27.1253 39.8042 27.9014 39.6489 28.9915C39.4937 30.0816 38.5588 31.0129 38.9434 31.7926C39.3279 32.5722 42.5206 33.6588 42.5206 30.5472C42.5206 27.4357 43.6107 22.8425 44.6372 21.9888C45.6638 21.1351 46.634 17.318 45.4733 13.8254C44.3127 10.3329 44.9265 9.46508 45.4733 10.4776C46.0201 11.49 47.1843 15.1484 48.352 16.7817C49.5197 18.4151 50.1406 22.1511 49.2834 24.0949C48.4261 26.0387 47.8052 27.6756 48.352 29.3866C48.8988 31.0976 49.1458 32.2653 49.682 34.2867C50.2182 36.3081 52.0068 38.3331 53.7213 36.0788C55.4359 33.8246 54.4975 30.2438 56.6776 28.9209C58.8578 27.598 59.2459 28.1413 58.5438 29.7746C57.8418 31.408 56.5224 32.8086 56.9105 34.5231C57.2985 36.2376 56.9105 39.8924 56.0532 41.8362C55.196 43.78 54.4975 46.5035 56.6 45.805C58.7026 45.1065 60.4806 40.6685 60.8793 39.7336C61.2779 38.7988 61.8882 38.3225 61.733 40.8237C61.5778 43.3249 61.0274 46.7399 59.2459 48.9941C57.4643 51.2484 54.2646 55.6969 53.0969 56.5436C51.9292 57.3903 51.4635 58.9531 48.8953 59.0307C46.3271 59.1083 43.6812 58.7203 42.6687 57.6196C41.6563 56.5189 41.1729 56.1415 40.0546 56.533C38.9363 56.9246 38.6435 57.6196 37.691 57.2386C36.7385 56.8576 35.9024 55.1219 34.4207 55.2172C32.9391 55.3124 32.1665 55.1396 31.6973 55.9227C31.2281 56.7059 31.0764 57.7043 28.995 57.3903Z" fill="#FED105"/>
<path d="M35.4717 57.5456C35.1436 56.9635 34.4133 56.7695 33.9547 56.6142C33.4961 56.459 32.7094 56.2226 32.3989 57.0799C32.0885 57.9372 30.7832 64.6259 30.7832 65.3879C30.7832 66.1499 31.3865 67.1165 32.981 66.8837C34.5756 66.6508 34.812 64.3154 35.3552 62.0612C35.8985 59.8069 35.8033 58.1312 35.4717 57.5456Z" fill="#FED105"/>
<path d="M41.4443 58.2263C41.1832 58.1487 39.8109 58.0147 39.3065 58.2263C38.802 58.438 37.7472 59.066 37.8071 60.8157C37.8671 62.5655 37.8848 64.9574 38.9149 65.9134C39.6204 66.5661 42.7284 67.1552 43.2717 65.3102C43.815 63.4651 43.3493 59.7468 42.7884 59.0342C42.4428 58.6228 41.9698 58.3385 41.4443 58.2263V58.2263Z" fill="#FED105"/>
<path d="M48.2356 61.4755C48.2356 61.4755 47.1455 60.2513 46.8915 60.1349C46.6366 60.0331 46.3545 60.022 46.0924 60.1036C45.8303 60.1852 45.6043 60.3544 45.4522 60.5829C45.0042 61.2426 44.5173 61.7083 45.3534 62.6044C46.1895 63.5004 49.4598 67.508 50.3347 67C51.2096 66.492 52.3596 65.6983 51.0402 64.4918C50.0454 63.5438 49.1088 62.5365 48.2356 61.4755V61.4755Z" fill="#FED105"/>
<path d="M30.2792 59.1225C29.9264 58.7344 29.055 58.3852 28.5153 58.1135C27.9755 57.8419 26.7514 57.7819 26.3562 57.9759C25.9611 58.17 23.2059 59.9409 23.4387 60.4454C23.6716 60.9499 25.9294 62.1776 27.0971 62.0999C28.2648 62.0223 29.5665 60.9887 29.877 60.5054C30.1874 60.0221 30.6284 59.4929 30.2792 59.1225Z" fill="#FED105"/>
<path d="M25.114 56.9246C25.1492 56.4413 23.3254 55.3301 22.9161 55.4077C22.5069 55.4853 21.5544 56.4202 21.5368 56.8188C21.5191 57.2174 21.8649 57.796 22.7009 57.8771C23.537 57.9583 25.0646 57.4891 25.114 56.9246Z" fill="#FED105"/>
</svg>
