<svg id="Lag_1" data-name="Lag 1" xmlns="http://www.w3.org/2000/svg" width="172.16mm" height="23.52mm" viewBox="0 0 488 66.67"><defs><style>.cls-1{fill:#ffffff;}</style></defs><path class="cls-1" d="M27.07,31.57a22.12,22.12,0,0,1-1.74,9.08A17.57,17.57,0,0,1,20.79,47a17.33,17.33,0,0,1-5.4,3.18A19.48,19.48,0,0,1,8.7,51.21c-.94,0-1.87,0-2.77-.07s-1.4-.08-1.49-.08,0-2.35,0-6.77.06-8.6.06-12.56q0-3.14,0-8.07t-.09-12l1.85,0,1.76,0a23.13,23.13,0,0,1,7.42,1.09,15.84,15.84,0,0,1,5.79,3.44,17,17,0,0,1,4.38,6.57,25.16,25.16,0,0,1,1.43,8.87Zm-3.44,0a20.13,20.13,0,0,0-1.14-6.94,13.28,13.28,0,0,0-3.57-5.35,12.83,12.83,0,0,0-5.05-2.9,17.86,17.86,0,0,0-5-.83h-1c0,3.1,0,5.66,0,7.7V28.1q0,1.3,0,6t0,13.15h1a16.25,16.25,0,0,0,5.26-.9,13,13,0,0,0,4.45-2.48,14.53,14.53,0,0,0,3.7-5.06,17.46,17.46,0,0,0,1.41-7.31"/><path class="cls-1" d="M49,35.13H34.39a17.56,17.56,0,0,0,.91,5.7A10.23,10.23,0,0,0,38,45.12a7.71,7.71,0,0,0,2.66,1.63,10.66,10.66,0,0,0,3.6.54,19.65,19.65,0,0,0,2.11-.1l1.18-.13-.37,4c-.11,0-.46,0-1.07.09s-1.32.06-2.14.06A12.13,12.13,0,0,1,38.37,50a10.6,10.6,0,0,1-3.93-3.37A16.36,16.36,0,0,1,32.21,42a19.56,19.56,0,0,1-.92-6.21A24.7,24.7,0,0,1,32,29.75a19,19,0,0,1,2.05-5,8.8,8.8,0,0,1,3-3.09,7,7,0,0,1,3.66-1.09,6.48,6.48,0,0,1,3.33.83,7.35,7.35,0,0,1,2.53,2.5,15,15,0,0,1,1.81,4.64A31.32,31.32,0,0,1,49,35.13Zm-3.13-3.29a12.32,12.32,0,0,0-1.7-5.76A4.21,4.21,0,0,0,40.5,24a4.5,4.5,0,0,0-3.77,2.12,13.47,13.47,0,0,0-2.1,5.73H45.84"/><path class="cls-1" d="M80.11,21c0,.43,0,2.37,0,5.83s0,6.75,0,9.87q0,3.18,0,6.48c0,2.2,0,4.22,0,6a21.23,21.23,0,0,1-1.18,7.9,11.16,11.16,0,0,1-3.36,4.57,13.52,13.52,0,0,1-4.19,2,20.69,20.69,0,0,1-6,.75l-.32-3.77a30.27,30.27,0,0,0,4.22-.37,10.67,10.67,0,0,0,3.39-1.13A7.23,7.23,0,0,0,76,55.82a13.65,13.65,0,0,0,1-5.19H76A15.66,15.66,0,0,1,71,49.79a10.45,10.45,0,0,1-4.33-2.67,12.65,12.65,0,0,1-2.88-4.53,18.83,18.83,0,0,1-1.11-6.92,16.33,16.33,0,0,1,1.55-7.27,13.21,13.21,0,0,1,4.17-5,11.61,11.61,0,0,1,4-1.84,23.73,23.73,0,0,1,5.3-.51h2.33ZM77,36.69V31.4c0-2.1,0-4.31,0-6.59h-.52a13.24,13.24,0,0,0-3.28.35,10.35,10.35,0,0,0-2.95,1.32A8.05,8.05,0,0,0,67,30.26a13.88,13.88,0,0,0-1.09,5.64A12.86,12.86,0,0,0,67,41.41,8.82,8.82,0,0,0,69.9,45a10.77,10.77,0,0,0,2.85,1.37,11.11,11.11,0,0,0,3.44.53h.74c0-.24,0-1.32,0-3.27s0-4.24,0-6.9"/><path class="cls-1" d="M98.74,24.81a25.32,25.32,0,0,0-3.4,1.6,57.69,57.69,0,0,0-5.27,3.26c0,.22,0,1.2,0,3s0,3.4,0,4.91q0,3.48.06,8.25c0,3.19.05,5,.05,5.31H87c0-.33,0-1.43,0-3.3s0-5.06,0-9.58c0-1.83,0-4.38,0-7.67s0-6.37-.08-9.28h3.12v4.47l0,0a42.23,42.23,0,0,1,4.5-3.26,22.08,22.08,0,0,1,3.55-1.87l.6,4.16"/><path class="cls-1" d="M120.11,36.25a25,25,0,0,1-.84,6.53,16.24,16.24,0,0,1-2.41,5.33,10.07,10.07,0,0,1-3,2.82,7.22,7.22,0,0,1-6.43.4,8.72,8.72,0,0,1-2.47-1.6c-.55,1.21-1,2.24-1.38,3.1L103,54.38,101.55,53q.11-.18.63-1.32l1.53-3.36a16.41,16.41,0,0,1-2.5-5.36,25.19,25.19,0,0,1-.87-6.74,25.28,25.28,0,0,1,.72-6.22,16.23,16.23,0,0,1,2.23-5.11,10.2,10.2,0,0,1,3.15-3.16,7.1,7.1,0,0,1,3.8-1.1,6.83,6.83,0,0,1,2.84.6,8.37,8.37,0,0,1,2.41,1.64c.24-.55.53-1.18.86-1.89s.69-1.51,1.08-2.41l1.43,1.32c-.35.71-.69,1.42-1,2.14s-.69,1.47-1.08,2.28a16.6,16.6,0,0,1,2.52,5.37,24.57,24.57,0,0,1,.83,6.61Zm-3.23.2a22.8,22.8,0,0,0-.62-5.37,12.22,12.22,0,0,0-1.9-4.4A5.64,5.64,0,0,0,112.49,25a4.58,4.58,0,0,0-2.25-.61,4.44,4.44,0,0,0-2.42.65,6.57,6.57,0,0,0-1.95,2,12.7,12.7,0,0,0-1.68,4,21.15,21.15,0,0,0-.62,5.11,22.6,22.6,0,0,0,.63,5.51,11.47,11.47,0,0,0,2,4.33A5.47,5.47,0,0,0,108,47.59a4.64,4.64,0,0,0,4.56-.1,6,6,0,0,0,1.93-1.88,12.88,12.88,0,0,0,1.76-4.11,20.79,20.79,0,0,0,.6-5Zm-1-10.36c-.81,1.71-1.66,3.52-2.54,5.45s-1.72,3.71-2.49,5.35q-1.45,3.12-2.68,5.85t-2.29,5l-1.25-1.44c.49-1.06,1.25-2.71,2.31-5s1.9-4.07,2.54-5.46q1.23-2.7,2.74-6c1-2.2,1.83-4,2.45-5.36l1.21,1.53"/><path class="cls-1" d="M141.26,51.1h-3.17c0-.55,0-2.37.06-5.44s0-5,0-5.71c0-1,0-2.54,0-4.52s0-3.45,0-4.38a11,11,0,0,0-.89-4.85,3,3,0,0,0-2.88-1.48,6.61,6.61,0,0,0-3.06,1,23,23,0,0,0-3.68,2.66c0,.21,0,1.38,0,3.51s0,4.07,0,5.82q0,3.42,0,8.27c0,3.23.05,4.92.05,5.08h-3.17c0-.14,0-1.34,0-3.61s0-5.64,0-10.13q0-3.09,0-7.24t-.09-8.85h3.12v3.38l0,.06a25.55,25.55,0,0,1,4.72-3.23,7.59,7.59,0,0,1,3.15-.91,4.75,4.75,0,0,1,4.13,2.37,11.67,11.67,0,0,1,1.56,6.49c0,2.46,0,4.6,0,6.39s0,3.25,0,4.37q0,2.67.06,6.69c0,2.68,0,4.08,0,4.22"/><path class="cls-1" d="M163.61,51.1h-3.18c0-.55,0-2.37.07-5.44s0-5,0-5.71c0-1,0-2.54,0-4.52s0-3.45,0-4.38a10.89,10.89,0,0,0-.89-4.85,3,3,0,0,0-2.88-1.48,6.61,6.61,0,0,0-3.06,1A23,23,0,0,0,150,28.42c0,.21,0,1.38,0,3.51s0,4.07,0,5.82q0,3.42,0,8.27c0,3.23.06,4.92.06,5.08h-3.18c0-.14,0-1.34,0-3.61s.05-5.64.05-10.13q0-3.09,0-7.24t-.09-8.85H150v3.38l0,.06a25.24,25.24,0,0,1,4.73-3.23,7.52,7.52,0,0,1,3.14-.91A4.75,4.75,0,0,1,162,22.94a11.67,11.67,0,0,1,1.56,6.49c0,2.46,0,4.6,0,6.39s0,3.25,0,4.37q0,2.67.06,6.69c0,2.68.05,4.08.05,4.22"/><path class="cls-1" d="M186.63,35.17H172.06a17.6,17.6,0,0,0,.91,5.7,10.23,10.23,0,0,0,2.72,4.3,7.84,7.84,0,0,0,2.66,1.62,10.6,10.6,0,0,0,3.59.54,19.53,19.53,0,0,0,2.11-.1l1.18-.13-.36,4c-.11,0-.47,0-1.07.09s-1.32.06-2.14.06A12.42,12.42,0,0,1,176,50a10.77,10.77,0,0,1-3.92-3.38,16.5,16.5,0,0,1-2.23-4.59,19.67,19.67,0,0,1-.92-6.22,24.7,24.7,0,0,1,.69-6.07,19,19,0,0,1,2-5,8.8,8.8,0,0,1,3-3.09,6.83,6.83,0,0,1,3.66-1.09,6.63,6.63,0,0,1,3.33.82,7.36,7.36,0,0,1,2.52,2.51A14.79,14.79,0,0,1,186,28.54a30.7,30.7,0,0,1,.65,6.63Zm-3.12-3.3a12.47,12.47,0,0,0-1.71-5.76A4.19,4.19,0,0,0,178.16,24a4.46,4.46,0,0,0-3.76,2.12,13.47,13.47,0,0,0-2.1,5.73h11.21"/><path class="cls-1" d="M279.48,34.88a19.45,19.45,0,0,1-1.4,7.75,12.75,12.75,0,0,1-3.77,5,12.31,12.31,0,0,1-4.53,2.23,18.11,18.11,0,0,1-4.69.65l.1,13.58H262q0-.49.07-8.15t0-15.34q0-3.87,0-9c0-3.41,0-7.08-.08-11,.44,0,.87,0,1.29,0h1a26.13,26.13,0,0,1,6.59.64,11.17,11.17,0,0,1,4.27,2.29,11.82,11.82,0,0,1,3.21,4.64,17.76,17.76,0,0,1,1.18,6.67Zm-3.24.14a12.61,12.61,0,0,0-.93-5,9.08,9.08,0,0,0-2.42-3.43,8.8,8.8,0,0,0-3.09-1.62,13.18,13.18,0,0,0-3.75-.51h-.91c0,.34,0,1.48,0,3.46s0,5.4,0,10.26V46.8a14.15,14.15,0,0,0,3.8-.52A9.4,9.4,0,0,0,272,44.89,9.18,9.18,0,0,0,275.17,41a14.93,14.93,0,0,0,1.07-6"/><path class="cls-1" d="M288.53,15.21H285v-5.1h3.56v5.1Zm-.22,35.48h-3.18c0-.31,0-2.25.07-5.8s0-6.5,0-8.81c0-2,0-4.25,0-6.69s0-5.26-.09-8.52h3.18c0,2.83-.05,5.48-.08,7.94s0,4.66,0,6.59q0,6.87.06,11c0,2.77.05,4.19.05,4.27"/><path class="cls-1" d="M311.39,20.64c0,.42,0,2.37,0,5.83s0,6.74,0,9.86c0,2.13,0,4.29,0,6.49s0,4.21,0,6a21.19,21.19,0,0,1-1.18,7.9,11,11,0,0,1-3.37,4.57,13.36,13.36,0,0,1-4.18,2,20.74,20.74,0,0,1-6,.75l-.33-3.77a31.83,31.83,0,0,0,4.22-.36,10.66,10.66,0,0,0,3.4-1.14,7.14,7.14,0,0,0,3.28-3.43,13.46,13.46,0,0,0,1-5.19h-1a15.62,15.62,0,0,1-4.93-.84A10.53,10.53,0,0,1,298,46.72a13,13,0,0,1-2.89-4.53,19.11,19.11,0,0,1-1.1-6.93A16.2,16.2,0,0,1,295.54,28a13.25,13.25,0,0,1,4.16-5,11.3,11.3,0,0,1,4.06-1.84,23.15,23.15,0,0,1,5.3-.51h2.33Zm-3.13,15.64V31c0-2.11,0-4.31-.05-6.6h-.53a13.27,13.27,0,0,0-3.27.35,10.81,10.81,0,0,0-3,1.32,8.12,8.12,0,0,0-3.14,3.79,13.83,13.83,0,0,0-1.09,5.63A12.8,12.8,0,0,0,298.3,41a8.63,8.63,0,0,0,2.89,3.55A10.26,10.26,0,0,0,304,45.92a10.82,10.82,0,0,0,3.44.54h.74c0-.24,0-1.33,0-3.28s0-4.24,0-6.9"/><path class="cls-1" d="M334.45,34.76H319.88a17.79,17.79,0,0,0,.9,5.7,10.43,10.43,0,0,0,2.72,4.3,8,8,0,0,0,2.67,1.62,10.6,10.6,0,0,0,3.59.54,19.53,19.53,0,0,0,2.11-.1c.64-.06,1-.11,1.18-.13l-.37,4a10.25,10.25,0,0,1-1.07.09c-.6,0-1.31.07-2.13.07a12.3,12.3,0,0,1-5.63-1.22,10.74,10.74,0,0,1-3.92-3.37,16.57,16.57,0,0,1-2.24-4.6,19.92,19.92,0,0,1-.91-6.22,24.58,24.58,0,0,1,.68-6.06,19.29,19.29,0,0,1,2.06-5,8.8,8.8,0,0,1,3-3.09,6.81,6.81,0,0,1,3.66-1.09,6.73,6.73,0,0,1,3.33.82A7.36,7.36,0,0,1,332,23.49a14.76,14.76,0,0,1,1.81,4.65,30.67,30.67,0,0,1,.65,6.62Zm-3.13-3.3a12.39,12.39,0,0,0-1.7-5.76A4.18,4.18,0,0,0,326,23.62a4.49,4.49,0,0,0-3.77,2.12,13.43,13.43,0,0,0-2.09,5.72h11.2"/><path class="cls-1" d="M350.91,42.07a9.83,9.83,0,0,1-.73,3.9,7.7,7.7,0,0,1-1.9,2.76,8,8,0,0,1-2.92,1.7,11.63,11.63,0,0,1-3.73.57,14.66,14.66,0,0,1-2.06-.14c-.71-.09-1.11-.14-1.2-.17l-.12-3.84,1.41.17a22,22,0,0,0,2.43.14,13,13,0,0,0,1.82-.17,4.7,4.7,0,0,0,1.84-.66,4.13,4.13,0,0,0,1.49-1.6,4.86,4.86,0,0,0,.49-2.28,4,4,0,0,0-.42-2A6.63,6.63,0,0,0,346.14,39a13.81,13.81,0,0,0-2.22-1.69,21.49,21.49,0,0,1-2.35-1.73,8.15,8.15,0,0,1-2.07-2.86,9.48,9.48,0,0,1-.71-3.83,9,9,0,0,1,.82-3.92,7.44,7.44,0,0,1,2.19-2.81,6.46,6.46,0,0,1,2.63-1.25,13.67,13.67,0,0,1,2.79-.3c.82,0,1.5,0,2,.07s.83.08.91.08l.22,3.85-1.24-.13c-.74-.07-1.54-.11-2.41-.11a6.41,6.41,0,0,0-1.77.24,4.17,4.17,0,0,0-1.42.68,3.62,3.62,0,0,0-1.24,1.58,4.53,4.53,0,0,0-.38,1.78,3.82,3.82,0,0,0,.53,2,5.78,5.78,0,0,0,1.23,1.44,22.79,22.79,0,0,0,2.27,1.68A22.53,22.53,0,0,1,348,35.41a9.09,9.09,0,0,1,2.15,2.89,8.93,8.93,0,0,1,.74,3.77"/><path class="cls-1" d="M373.16,34.88a19.28,19.28,0,0,1-1.39,7.75,12.75,12.75,0,0,1-3.77,5,12.31,12.31,0,0,1-4.53,2.23,18.11,18.11,0,0,1-4.69.65l.11,13.58h-3.23q0-.49.06-8.15t0-15.34q0-3.87,0-9t-.07-11c.42,0,.86,0,1.28,0h1a26.17,26.17,0,0,1,6.6.64,11.17,11.17,0,0,1,4.27,2.29A11.82,11.82,0,0,1,372,28.21a17.76,17.76,0,0,1,1.17,6.67Zm-3.23.14a12.61,12.61,0,0,0-.93-5,9,9,0,0,0-2.43-3.43,8.59,8.59,0,0,0-3.08-1.62,13.18,13.18,0,0,0-3.75-.51h-.91c0,.34,0,1.48,0,3.46s0,5.4,0,10.26V46.8a14.33,14.33,0,0,0,3.81-.52,9.43,9.43,0,0,0,3.13-1.39A9.18,9.18,0,0,0,368.86,41a14.93,14.93,0,0,0,1.07-6"/><path class="cls-1" d="M394.34,34.76H379.77a17.79,17.79,0,0,0,.9,5.7,10.33,10.33,0,0,0,2.72,4.3,7.78,7.78,0,0,0,2.67,1.62,10.56,10.56,0,0,0,3.59.54,19.65,19.65,0,0,0,2.11-.1l1.17-.13-.36,4a10.56,10.56,0,0,1-1.06.09c-.61,0-1.33.07-2.15.07a12.28,12.28,0,0,1-5.62-1.22,10.85,10.85,0,0,1-3.93-3.37,16.85,16.85,0,0,1-2.23-4.6,19.92,19.92,0,0,1-.91-6.22,25.07,25.07,0,0,1,.68-6.06,19.29,19.29,0,0,1,2.06-5,8.8,8.8,0,0,1,3-3.09A6.81,6.81,0,0,1,386,20.16a6.67,6.67,0,0,1,3.32.82,7.28,7.28,0,0,1,2.52,2.51,15,15,0,0,1,1.83,4.65,31.38,31.38,0,0,1,.64,6.62Zm-3.13-3.3a12.39,12.39,0,0,0-1.7-5.76,4.18,4.18,0,0,0-3.64-2.08,4.49,4.49,0,0,0-3.77,2.12A13.43,13.43,0,0,0,380,31.46h11.2"/><path class="cls-1" d="M403.52,50.54a24.66,24.66,0,0,1-.54,5.28,10.92,10.92,0,0,1-1.86,4.25,10.22,10.22,0,0,1-2.88,2.58,12,12,0,0,1-4.54,1.46L393,60.52a14.39,14.39,0,0,0,3.4-1,5.76,5.76,0,0,0,2.31-1.77A7.59,7.59,0,0,0,400,54.71a24.23,24.23,0,0,0,.41-5.08q0-7.4-.05-18c0-7,0-10.64,0-10.8h3.17c0,.27,0,1.79,0,4.57s0,6.08,0,9.92q0,3.7,0,7.8c0,2.72,0,5.18,0,7.38Zm.22-35.33h-3.56v-5.1h3.56v5.1"/><path class="cls-1" d="M425.11,51.13l-.77,0h-1a29.07,29.07,0,0,1-6-.48,11.81,11.81,0,0,1-4.23-1.93,12,12,0,0,1-4.1-5,16.93,16.93,0,0,1-1.39-6.94,19.05,19.05,0,0,1,1.56-7.93,12.33,12.33,0,0,1,4.5-5.39,12.72,12.72,0,0,1,3.95-1.78A16.4,16.4,0,0,1,422,21.1l-.06-13.57h3.18c0,.39,0,3.13-.05,8.24S425,26,425,31.28c0,4.13,0,7.87,0,11.22s0,6.22.07,8.63ZM422,30.46V25a14,14,0,0,0-3.83.5,10.44,10.44,0,0,0-3.07,1.35A8.67,8.67,0,0,0,412,30.74a14.25,14.25,0,0,0-1.12,5.88,11.71,11.71,0,0,0,1.07,5.2,9.5,9.5,0,0,0,2.68,3.4,9.64,9.64,0,0,0,3.15,1.63,12.41,12.41,0,0,0,3.68.55h.52c0-.18,0-1.64,0-4.39s0-6.93,0-12.55"/><path class="cls-1" d="M448.2,34.76H433.63a17.51,17.51,0,0,0,.91,5.7,10.23,10.23,0,0,0,2.72,4.3,7.84,7.84,0,0,0,2.66,1.62,10.62,10.62,0,0,0,3.6.54,19.33,19.33,0,0,0,2.1-.1c.64-.06,1-.11,1.18-.13l-.36,4a10.58,10.58,0,0,1-1.07.09c-.6,0-1.32.07-2.14.07a12.25,12.25,0,0,1-5.62-1.22,10.69,10.69,0,0,1-3.93-3.37,16.57,16.57,0,0,1-2.23-4.6,19.92,19.92,0,0,1-.91-6.22,24.58,24.58,0,0,1,.68-6.06,19,19,0,0,1,2.06-5,8.77,8.77,0,0,1,3-3.09,6.83,6.83,0,0,1,3.66-1.09,6.71,6.71,0,0,1,3.33.82,7.36,7.36,0,0,1,2.52,2.51,14.76,14.76,0,0,1,1.82,4.65,31.38,31.38,0,0,1,.64,6.62Zm-3.12-3.3a12.51,12.51,0,0,0-1.7-5.76,4.21,4.21,0,0,0-3.64-2.08A4.48,4.48,0,0,0,436,25.74a13.43,13.43,0,0,0-2.1,5.72h11.21"/><path class="cls-1" d="M465.36,24.4A26.32,26.32,0,0,0,462,26a59.64,59.64,0,0,0-5.27,3.25q0,.33,0,3c0,1.75,0,3.39,0,4.9,0,2.32,0,5.08.05,8.25s.05,5,.05,5.31h-3.17c0-.33,0-1.43.05-3.3s.05-5.06.05-9.58c0-1.83,0-4.37,0-7.66s0-6.37-.08-9.28h3.12v4.47l0,0a42.23,42.23,0,0,1,4.5-3.26,21.67,21.67,0,0,1,3.55-1.87l.6,4.16"/><path class="cls-1" d="M485.22,34.76H470.65a17.51,17.51,0,0,0,.91,5.7,10.31,10.31,0,0,0,2.71,4.3,7.78,7.78,0,0,0,2.67,1.62,10.56,10.56,0,0,0,3.59.54,19.53,19.53,0,0,0,2.11-.1c.64-.06,1-.11,1.18-.13l-.37,4a10.23,10.23,0,0,1-1.06.09c-.61,0-1.32.07-2.15.07a12.28,12.28,0,0,1-5.62-1.22,10.74,10.74,0,0,1-3.92-3.37,16.57,16.57,0,0,1-2.24-4.6,19.92,19.92,0,0,1-.92-6.22,25.05,25.05,0,0,1,.69-6.06,19.29,19.29,0,0,1,2.06-5,8.8,8.8,0,0,1,3-3.09,6.91,6.91,0,0,1,7-.27,7.45,7.45,0,0,1,2.52,2.51,15,15,0,0,1,1.82,4.65,32.06,32.06,0,0,1,.64,6.62Zm-3.12-3.3a12.51,12.51,0,0,0-1.71-5.76,4.18,4.18,0,0,0-3.64-2.08A4.49,4.49,0,0,0,473,25.74a13.69,13.69,0,0,0-2.1,5.72H482.1"/><path class="cls-1" d="M251.37,35a12.77,12.77,0,0,0-9.71-9.61,18.6,18.6,0,0,0-8.14.78l3.13-3.67a47.6,47.6,0,0,0,6.06-7.67,7.46,7.46,0,0,0,1-3.66,6,6,0,0,0-.34-2,6.59,6.59,0,0,0-4.09-3.81c-1.92-.73-3.86-.1-5.74.5-1.58.51-3.07,1-4.29.54-.51-.19-.78-.64-1.17-1.35a4.48,4.48,0,0,0-1.65-1.92c-2.34-1.3-5-.21-6.79.72a13.35,13.35,0,0,0-6.89,11.68c0,.25,0,.51,0,.75a20.16,20.16,0,0,0,2.68,7.72A19.78,19.78,0,0,0,210,22.5c-4.16-.34-9.81,1.42-12.4,6.09-.92,1.65-2,4.11-.61,6.34a4.59,4.59,0,0,0,1.93,1.55c.63.33,1.18.62,1.39,1.11.46,1.09,0,2.43-.47,3.86-.57,1.66-1.2,3.54-.41,5.35a6.66,6.66,0,0,0,3.79,3.82,7.19,7.19,0,0,0,5.7-.49,44.49,44.49,0,0,0,7.62-5.41c1.84-1.5,4.18-3.33,5.34-4.07A12.49,12.49,0,0,1,223,40V35.14H210.66V31.87H223V19.76h3.28V31.87h12.32v3.27H226.25s.07,13.87,0,15a29.41,29.41,0,0,1-.39,5,7.65,7.65,0,0,1-1.26,3,5.62,5.62,0,0,1-2.22,1.76,13.79,13.79,0,0,1-3.26,1l.66,3.51A11.51,11.51,0,0,0,224.19,63,10,10,0,0,0,227,60.4a11.09,11.09,0,0,0,1.79-4.21,25,25,0,0,0,.52-5.23c0-1.79,0-3.75,0-5.88.35.54.71,1.07,1.05,1.61a46.72,46.72,0,0,0,5.54,7.67,6.28,6.28,0,0,0,5,2,6.2,6.2,0,0,0,4.51-3c1.12-1.65,1-3.66.91-5.6-.09-1.63-.17-3.19.53-4.23.29-.44.76-.58,1.49-.78a4.23,4.23,0,0,0,2.15-1.12c1.74-1.91,1.38-4.71,1-6.65"/></svg>