<svg width="99" height="79" viewBox="0 0 99 79" fill="none" xmlns="http://www.w3.org/2000/svg">
<path d="M47.9345 78.7265C69.6742 78.7265 87.2978 61.1029 87.2978 39.3632C87.2978 17.6235 69.6742 0 47.9345 0C26.1948 0 8.57129 17.6235 8.57129 39.3632C8.57129 61.1029 26.1948 78.7265 47.9345 78.7265Z" fill="#96D5EB"/>
<path fill-rule="evenodd" clip-rule="evenodd" d="M96.3433 27.15C96.3433 27.15 81.3783 33.4365 66.357 31.4609C64.8753 31.2669 63.4183 31.0305 61.9825 30.7765L55.9111 32.7733C78.0446 38.9364 90.6565 35.2427 95.7436 33.5953C101.127 31.8561 96.3433 27.15 96.3433 27.15Z" fill="#95358F"/>
<path fill-rule="evenodd" clip-rule="evenodd" d="M42.1876 50.9873C39.7922 52.0457 38.3317 52.1691 35.3648 51.4071C28.4538 49.6432 21.5429 41.9279 24.3087 36.3999C26.7005 31.6162 27.4837 25.8164 43.5034 29.3125L48.0508 27.6086C41.0481 25.7776 35.132 24.1125 30.8245 24.1972C23.1233 24.3524 18.9076 35.4297 19.5356 40.0723C20.1635 44.7149 25.4482 57.4679 37.5274 56.9105C42.3675 56.6883 46.6114 54.9102 50.6155 52.8394L42.1876 50.9873Z" fill="#95358F"/>
<path fill-rule="evenodd" clip-rule="evenodd" d="M95.2319 46.5741C95.2319 46.5741 92.6354 43.706 83.3537 42.3231C74.0721 40.9402 62.2257 42.5453 54.1259 45.297C53.3004 45.5792 52.5207 45.8862 51.7764 46.2072L60.3948 47.7559C62.8995 46.6729 65.429 45.9179 68.0748 45.8474C78.1926 45.5792 87.5765 50.9944 93.5632 53.3757C99.5499 55.757 95.2319 46.5741 95.2319 46.5741Z" fill="#95358F"/>
<path fill-rule="evenodd" clip-rule="evenodd" d="M19.1792 34.3291L20.9431 29.9828C15.4761 28.0199 10.2988 25.3287 5.5513 21.9818C2.19283 22.3769 3.18062 26.328 7.2764 30.4061C9.0791 32.17 13.7534 33.4436 19.1792 34.3291Z" fill="#95358F"/>
<path fill-rule="evenodd" clip-rule="evenodd" d="M19.317 43.3955C14.6323 43.7825 9.97148 44.4172 5.35394 45.297C0.22099 46.2813 -2.34725 53.9754 2.83509 51.573C5.65734 50.2641 13.0904 48.338 21.2749 47.6183L19.317 43.3955Z" fill="#95358F"/>
<path fill-rule="evenodd" clip-rule="evenodd" d="M69.26 29.2138C70.2029 29.5963 70.9878 30.2879 71.486 31.1752L76.1074 30.7201C75.2713 27.7215 73.8426 25.2838 71.7082 24.1972C63.9929 20.2602 54.2597 27.9861 38.8997 31.6585C35.266 32.5229 31.5089 32.4382 27.8753 31.8173L26.0938 35.2428C30.9762 35.7614 35.767 36.0507 39.1466 36.2059C48.0332 36.6116 64.0247 27.1359 69.26 29.2138Z" fill="#95358F"/>
<path fill-rule="evenodd" clip-rule="evenodd" d="M76.8484 41.3706C77.0034 39.8306 77.0506 38.2816 76.9895 36.735H72.5339C72.4344 38.3125 72.1321 39.8705 71.6343 41.3706H76.8484Z" fill="#95358F"/>
<path fill-rule="evenodd" clip-rule="evenodd" d="M68.8402 46.4718C68.7697 46.5494 68.7062 46.6376 68.6356 46.7117C64.3776 51.0967 45.8389 46.8669 36.5573 44.214C33.6751 43.392 30.0661 43.0886 26.3267 43.0921L29.7204 47.3714C33.8021 47.5195 37.7532 48.1122 41.1046 49.3752C53.5366 54.0565 66.6671 53.9613 72.3186 51.8023C73.6451 51.2943 74.7352 49.7138 75.536 47.5689L68.8402 46.4718Z" fill="#95358F"/>
</svg>
