<svg width="35" height="35" viewBox="0 0 35 35" fill="none" xmlns="http://www.w3.org/2000/svg">
<path d="M15.159 15.2911V17.2792C15.159 17.2792 15.0907 18.0815 15.8975 18.4152C16.7043 18.749 17.5852 19.0828 17.5852 19.0828C17.5852 19.0828 18.5173 19.4374 18.5173 18.1874C18.5173 16.9374 18.5173 16.1431 18.5173 16.1431C18.5437 15.9659 18.5028 15.7861 18.4005 15.6297C18.2981 15.4734 18.1395 15.3486 17.9478 15.2734C17.2757 15.0055 15.7437 14.6733 15.7437 14.6733C15.7437 14.6733 15.159 14.5851 15.159 15.2911Z" fill="#EE2738"/>
<path d="M23.0772 15.6424H19.9031C19.9031 15.6424 18.8457 15.5783 18.8457 16.5683V18.3895C18.8457 18.3895 18.8951 18.8581 19.8063 19.1132C20.7175 19.3683 23.25 20.2845 23.25 20.2845C23.25 20.2845 24.1365 20.7114 24.1118 19.625C24.0872 18.5387 24.1118 16.5683 24.1118 16.5683C24.1118 16.5683 24.2106 15.6424 23.0772 15.6424Z" fill="#EE2738"/>
<path d="M14.5382 18.404L17.6117 19.6138C17.8249 19.6947 18.0053 19.8265 18.1308 19.993C18.2563 20.1595 18.3214 20.3535 18.3179 20.5509V21.573C18.3179 21.573 18.4186 22.3753 17.1087 22.4042C15.7988 22.4331 13.7068 22.4042 13.7068 22.4042C13.7068 22.4042 12.226 22.1266 12.7253 20.7001C13.2246 19.2736 13.4163 18.7168 13.4163 18.7168C13.4619 18.6312 13.5281 18.5545 13.6106 18.4917C13.6932 18.4288 13.7903 18.3812 13.8958 18.3517C14.0013 18.3223 14.1129 18.3117 14.2235 18.3207C14.3341 18.3297 14.4413 18.3581 14.5382 18.404Z" fill="#EE2738"/>
<path d="M19.9392 19.463C19.9392 19.463 19.0317 19.2063 18.7868 20.1049C18.5761 20.8799 18.5362 22.3914 18.5362 22.3914C18.5249 22.651 18.624 22.9054 18.8156 23.1085C19.0071 23.3116 19.2785 23.45 19.5804 23.4986C20.2347 23.6393 20.9117 23.6897 21.5851 23.6478C21.5851 23.6478 22.5988 23.7296 22.6178 22.5615C22.6349 21.5987 22.6178 21.05 22.6178 21.05C22.6178 21.05 22.6728 20.4274 21.735 20.0696C20.9795 19.7743 19.9392 19.463 19.9392 19.463Z" fill="#EE2738"/>
<path d="M15.7722 23.0525H13.834C13.834 23.0525 12.2203 22.9675 12.3152 25.2396C12.4102 27.5117 13.5245 31.9404 14.2972 33.0187C14.2972 33.0187 16.7898 37.1361 16.0779 33.5C15.7988 32.0703 15.8766 30.9873 16.5373 30.185C17.0631 29.5431 17.0916 27.9482 16.7898 26.7222C16.58 25.9217 16.5949 25.0908 16.8334 24.2961C16.991 23.9335 16.9891 23.1665 15.7722 23.0525Z" fill="#EE2738"/>
<path d="M24.725 21.2538C24.725 21.2538 22.9785 20.5349 23.2481 22.6273C23.5176 24.7197 23.7625 26.1093 23.2196 27.8984C22.6766 29.6875 22.5229 32.157 22.688 33.094C22.8779 34.2173 23.436 35.602 24.3966 32.5549C25.0022 30.6294 26.4848 29.7228 27.2556 28.8371C28.3604 27.5534 28.5503 24.7598 27.041 22.7396C26.3709 21.8507 24.725 21.2538 24.725 21.2538Z" fill="#EE2738"/>
<path fill-rule="evenodd" clip-rule="evenodd" d="M23.1952 10.0451C21.9252 10.9934 20.5771 12 19.326 13.2468C17.9212 14.6492 20.0322 14.7519 20.6852 14.7808C21.3383 14.8097 29.7577 14.7792 33.4367 7.70776C34.8792 4.93526 35.2581 2.3362 34.84 0H28.3146C29.5054 5.33316 26.6371 7.47493 23.1952 10.0451ZM0.416091 0H7.53724C7.31838 0.629411 7.19451 1.29824 7.18198 2.00343C7.10124 6.54856 10.0024 8.91096 11.8786 10.4387C12.5167 10.9583 13.0363 11.3814 13.2796 11.761C14.2383 13.2564 14.1851 16.2281 13.9346 16.5266C13.9198 16.5442 13.9059 16.5618 13.8922 16.5791C13.675 16.8539 13.5334 17.033 11.1629 15.5895C10.9952 15.4874 10.8022 15.372 10.5879 15.2439C7.58439 13.4487 0.402606 9.15608 0.0269474 3.74923C-0.0673008 2.39272 0.0911915 1.17343 0.416091 0Z" fill="#EE2738"/>
</svg>
