<svg width="79" height="79" viewBox="0 0 79 79" fill="none" xmlns="http://www.w3.org/2000/svg">
<path d="M39.3632 78.7265C61.1029 78.7265 78.7265 61.1029 78.7265 39.3632C78.7265 17.6235 61.1029 0 39.3632 0C17.6235 0 0 17.6235 0 39.3632C0 61.1029 17.6235 78.7265 39.3632 78.7265Z" fill="#96D5EB"/>
<path d="M65.053 40.2506C63.8923 34.9165 59.4084 31.7132 55.6972 30.99C53.5805 30.5772 50.7935 30.9159 47.8618 31.745L50.8746 28.2171C53.1853 25.6418 55.3726 23.2076 56.7096 20.8298C57.3367 19.7537 57.6734 18.5332 57.6869 17.2879C57.6891 16.6352 57.5781 15.987 57.3588 15.3722C56.759 13.7247 55.4008 12.4618 53.4252 11.7103C51.5766 11.0048 49.7104 11.608 47.8971 12.1901C46.3978 12.7017 44.9443 13.1568 43.7731 12.7193C43.2827 12.5359 43.0216 12.1019 42.6406 11.4175C42.2596 10.7331 41.8645 10.024 41.0566 9.576C38.8059 8.32362 36.2446 9.37139 34.5195 10.2816C29.8875 12.6699 27.8837 17.6195 27.8837 21.5213C27.8837 21.7647 27.8837 22.0116 27.9084 22.248C28.053 24.4317 29.0549 27.0353 30.4943 29.6847C28.5716 28.8909 26.7371 28.3124 25.1602 28.1818C21.1596 27.8467 15.7056 29.5365 13.2361 34.031C12.3329 35.6326 11.3099 37.9963 12.6328 40.1412C13.0914 40.8927 13.8358 41.2772 14.4955 41.63C15.1023 41.9545 15.6279 42.2262 15.829 42.6883C16.2735 43.7467 15.829 45.0308 15.3739 46.4067C14.8342 48.0048 14.2274 49.811 14.9788 51.5608C15.7514 53.3706 17.0179 54.6406 18.6337 55.2369C19.532 55.5388 20.4828 55.653 21.427 55.5723C22.3713 55.4915 23.2889 55.2177 24.123 54.7676C26.5007 53.5929 28.9103 51.6243 31.4644 49.5535C33.2283 48.1071 35.6978 46.068 36.8797 45.4894C38.0615 44.9109 38.5307 44.9638 38.5307 44.9638V39.926H25.8305V37.4565H38.4848V25.5324H40.8591V37.4671C43.8542 37.4671 52.4692 37.4671 52.7302 37.4671V39.9366H40.8591C40.8591 39.9366 40.9261 53.6952 40.9049 54.7535C40.915 56.3793 40.7887 58.0031 40.5274 59.6078C40.3352 60.6611 39.9216 61.6615 39.3139 62.543C38.7582 63.2814 38.022 63.8645 37.176 64.2364C36.1776 64.6738 35.1271 64.9809 34.0503 65.1501L34.6889 68.5333C36.17 68.3563 37.6003 67.8823 38.8941 67.1398C39.9341 66.4951 40.8407 65.6568 41.5646 64.6703C42.4117 63.4526 42.9968 62.0723 43.2827 60.6168C43.6291 58.9578 43.7994 57.2668 43.7907 55.572C43.7907 53.8504 43.7907 51.9595 43.7695 49.9274C44.1223 50.4425 44.4504 50.9576 44.7785 51.4797C46.5777 54.302 48.2675 57.0043 50.1161 58.8635C51.5273 60.2746 53.2453 60.9802 54.914 60.8355C56.5826 60.6909 58.089 59.6855 59.2567 57.9533C60.3363 56.3622 60.234 54.4254 60.1316 52.5663C60.0505 50.9893 59.9658 49.4971 60.6432 48.4881C60.9254 48.0718 61.3699 47.9307 62.0755 47.7367C62.7811 47.5426 63.5395 47.331 64.1463 46.6783C65.8009 44.805 65.4481 42.1133 65.053 40.2506Z" fill="#178C6D"/>
</svg>
