<svg width="35" height="35" viewBox="0 0 35 35" fill="none" xmlns="http://www.w3.org/2000/svg">
<path fill-rule="evenodd" clip-rule="evenodd" d="M6.61996 30.1462C8.51588 29.0504 12.0005 25.0918 13.8593 22.882C14.1301 23.1788 14.4168 23.4596 14.7182 23.723C15.1745 24.115 15.6651 24.4622 16.1837 24.7602C17.703 25.595 19.3884 26.0558 21.1084 26.1067C22.1831 26.1358 23.2563 26.0064 24.2956 25.7226C25.3279 25.4446 26.3163 25.0149 27.2305 24.4468C27.4144 24.3356 27.6609 24.2143 27.9192 24.0869C28.604 23.7493 29.4551 23.3288 30.089 22.611C31.6915 20.7914 32.1708 18.2177 32.4095 16.1696L32.4291 15.9856C32.5652 14.7586 32.5051 13.5169 32.2511 12.31C32.0087 11.1491 31.5893 10.0354 31.0086 9.01048C30.6726 8.42403 30.289 7.86807 29.8621 7.34857C29.4476 6.83894 28.9892 6.36931 28.4925 5.94545C28.4416 5.89895 28.3888 5.85447 28.336 5.80999C27.9768 5.4484 27.5958 5.11076 27.1953 4.7991C26.7471 4.4528 26.2764 4.13868 25.7865 3.85897C25.2502 3.56336 24.6922 3.31188 24.1176 3.10686C23.0202 2.71217 21.8673 2.50724 20.7053 2.50032C19.4962 2.49077 18.2943 2.69242 17.1502 3.09675C16.036 3.48533 14.9958 4.07166 14.0765 4.82942C13.6356 5.18817 13.2228 5.58229 12.8419 6.00813C11.6583 7.35498 10.8367 8.99862 10.4588 10.7755C10.3903 11.0929 10.3355 11.4245 10.2944 11.7642C10.2768 11.9279 10.2298 12.1503 10.1809 12.3848C10.0477 12.9342 9.97293 13.4968 9.95788 14.0629C9.95713 14.1979 9.963 14.3329 9.97549 14.4673C10.1829 16.6427 11.0477 18.5493 11.9673 20.1768C10.0537 21.4445 6.51822 24.5843 4.73774 26.8083C2.46029 29.6509 2.06311 29.7318 2.9103 31.6808C3.7575 33.6298 3.9512 31.6868 6.61996 30.1462ZM13.1569 14.1478C13.162 13.789 13.2113 13.4323 13.3036 13.0864C13.3662 12.7872 13.4308 12.4799 13.468 12.1584C13.4954 11.9279 13.5325 11.7075 13.5775 11.4993C13.7416 10.7126 14.034 9.96057 14.4423 9.27533C14.8684 8.55388 15.4204 7.92043 16.0702 7.4072C16.6987 6.89794 17.4077 6.50466 18.1657 6.24467C19.7441 5.68658 21.4572 5.68658 23.0356 6.24467C23.4537 6.39231 23.8599 6.57348 24.2506 6.78651C24.6113 6.99286 24.9577 7.22456 25.2876 7.47999C25.5907 7.7139 25.8777 7.96926 26.1466 8.24422L26.2776 8.36351L26.442 8.50099C26.7896 8.79716 27.1111 9.12463 27.4027 9.47953C27.714 9.8536 27.9935 10.2547 28.2381 10.6785C28.6494 11.3973 28.9466 12.1795 29.1186 12.9954C29.2128 13.4352 29.2723 13.8821 29.2966 14.3318C29.2966 14.443 29.2966 14.5542 29.2966 14.6674C29.2957 14.9896 29.2781 15.3116 29.2438 15.6318L29.2301 15.7754C29.0482 17.3281 28.7136 19.2549 27.7236 20.377C27.5083 20.6196 26.9918 20.8743 26.5359 21.1008C26.2248 21.2524 25.9039 21.4121 25.5968 21.6001C24.2751 22.4167 22.7575 22.8322 21.218 22.7991C20.4376 22.7844 19.6639 22.6481 18.9229 22.3947C18.5119 22.2548 18.1128 22.0803 17.7294 21.8731C17.3828 21.6768 17.0552 21.4466 16.7511 21.1857C16.1132 20.6295 15.5662 19.9707 15.1311 19.2347C14.2623 17.7689 13.331 16.0119 13.1569 14.1478Z" fill="#F48374"/>
</svg>
