<svg id="Lag_1" data-name="Lag 1" xmlns="http://www.w3.org/2000/svg" width="80mm" height="80mm" viewBox="0 0 226.77 226.77"><defs><style>.cls-1{fill:#03a888;}</style></defs><path class="cls-1" d="M37.2,86.59c1.2-1.22,3-1.4,4.63-1.62,1.85-.26,3.73-.44,5.59-.61,7.69-.71,15.4-1,23.11-1.41,4.19-.25,8.38-.56,12.55-1,2.08-.25,4.14-.53,6.2-.88l1.34-.24L93.83,74c3.92-8.3,7.75-16.65,11.66-24.94,2-4.15,3.81-8.37,5.9-12.45.47-.9.85-1.83,1.89-2.16a2.43,2.43,0,0,1,2.53.82,9.89,9.89,0,0,1,1.33,2.46L118.62,41Q124.17,53,129.21,65.3q3.6,8.78,6.88,17.69a383.46,383.46,0,0,1,40,7.91c4.78,1.22,9.55,2.51,14.28,3.93a2.16,2.16,0,0,1,.8,3.63q-10.26,8.9-20.42,17.87c-6.72,5.91-13.39,11.92-20.25,17.67-.48.41-1,.82-1.49,1.22q3,21.66,6.1,43.31c.45,3.19,2.21,9.84-2.73,10.53-2.32.32-4.33-1.6-6.08-2.84s-3.68-2.63-5.49-4Q129.58,174,119,164.91c-3.31-2.85-6.61-5.74-9.84-8.71a187.08,187.08,0,0,1-38.76,22.07q-2.82,1.18-5.67,2.28c-1.78.68-3.8,1.73-5.7.87s-2.23-3.16-1.86-5.1c.42-2.18.94-4.34,1.42-6.51q3-13.38,6.31-26.68,1.88-7.47,3.86-14.92c.43-1.59.84-3.19,1.26-4.78Q55.29,110,41.34,95.62a51.72,51.72,0,0,1-4-4.22C36.21,90,35.83,88,37.2,86.59Z"/></svg>