<svg width="121" height="116" viewBox="0 0 121 116" fill="none" xmlns="http://www.w3.org/2000/svg">
<path d="M55.5342 68.2215V72.7449C55.5342 72.7449 55.3974 74.5441 56.9967 75.3166C58.5959 76.0891 60.3425 76.8413 60.3425 76.8413C60.3425 76.8413 62.189 77.6444 62.189 74.8084C62.189 71.9724 62.189 70.1783 62.189 70.1783C62.2426 69.7779 62.1635 69.3714 61.9631 69.0172C61.7628 68.6629 61.4514 68.379 61.0737 68.2063C59.6513 67.6602 58.1926 67.2068 56.7073 66.8493C56.7073 66.8493 55.5342 66.6409 55.5342 68.2215Z" fill="#DC3E41"/>
<path d="M71.2322 69.0348H64.9193C64.6315 69.0138 64.3424 69.0543 64.0726 69.1533C63.8027 69.2523 63.5587 69.4075 63.3579 69.6078C63.1571 69.8081 63.0044 70.0487 62.9105 70.3124C62.8167 70.5762 62.7841 70.8566 62.815 71.1339V75.2608C62.815 75.2608 62.915 76.323 64.7194 76.9024C66.5239 77.4818 71.5584 79.5554 71.5584 79.5554C71.5584 79.5554 73.3155 80.5211 73.2682 78.0612C73.2208 75.6013 73.2682 71.1339 73.2682 71.1339C73.2682 71.1339 73.4575 69.0348 71.2322 69.0348Z" fill="#DC3E41"/>
<path d="M54.3082 75.2963L60.4002 78.0154C60.823 78.1983 61.181 78.4972 61.4298 78.8748C61.6785 79.2524 61.8071 79.6923 61.7995 80.1398V82.4523C61.7995 82.4523 61.9942 84.2871 59.4006 84.3379C56.8071 84.3887 52.6564 84.3379 52.6564 84.3379C52.6564 84.3379 49.7103 83.7077 50.7099 80.4753C51.7094 77.2429 52.0829 75.9824 52.0829 75.9824C52.1744 75.7892 52.3066 75.6165 52.4712 75.4755C52.6357 75.3345 52.8289 75.2283 53.0385 75.1637C53.248 75.0991 53.4692 75.0776 53.6878 75.1004C53.9065 75.1232 54.1178 75.1899 54.3082 75.2963Z" fill="#DC3E41"/>
<path d="M65.0088 77.68C65.0088 77.68 63.2096 77.1006 62.7309 79.1285C62.4223 80.8398 62.2465 82.5709 62.2048 84.3075C62.1827 84.8962 62.3796 85.4731 62.7599 85.9337C63.1401 86.3943 63.6785 86.7081 64.2775 86.8182C65.5724 87.1356 66.9119 87.2488 68.2441 87.1536C68.2441 87.1536 70.259 87.3417 70.2958 84.6938C70.3274 82.5032 70.2958 81.2682 70.2958 81.2682C70.2958 81.2682 70.4011 79.8553 68.544 79.0472C67.071 78.3966 65.0088 77.68 65.0088 77.68Z" fill="#DC3E41"/>
<path d="M56.7493 85.822H52.909C52.909 85.822 49.7105 85.6289 49.9104 90.7723C50.1103 95.9157 52.3093 105.953 53.8401 108.398C53.8401 108.398 58.78 117.729 57.3701 109.496C56.8125 106.258 56.9703 103.799 58.2802 101.984C59.3324 100.531 59.3797 96.9017 58.78 94.1368C58.3629 92.3241 58.3936 90.4419 58.8694 88.6427C59.1693 87.8194 59.164 86.0812 56.7493 85.822Z" fill="#DC3E41"/>
<path d="M74.5099 81.7511C74.5099 81.7511 71.0483 80.1196 71.5796 84.8615C72.111 89.6034 72.6002 92.7494 71.5218 96.8052C70.4433 100.861 70.1434 106.462 70.4696 108.576C70.8642 111.117 71.9531 114.258 73.8417 107.356C75.0412 102.98 77.9872 100.937 79.5076 98.9297C81.7013 96.0327 82.0748 89.6949 79.0815 85.1105C77.761 83.0979 74.5099 81.7511 74.5099 81.7511Z" fill="#DC3E41"/>
<path d="M63.7943 63.6119C66.593 60.4252 84.469 57.5129 81.9754 36.2023C79.4818 14.8917 65.1936 19.9944 57.3025 20.8635C49.4113 21.7326 39.942 24.3348 39.7263 38.1438C39.5106 51.9528 49.9111 56.8675 51.826 60.2422C53.7409 63.6169 53.6252 70.3766 53.1254 71.0474C52.6257 71.7183 52.6257 72.3994 47.6279 68.9281C42.6302 65.4568 26.3534 55.2055 25.5591 42.103C24.7647 29.0005 28.8365 15.2627 48.1119 9.40267C67.3874 3.54263 81.8755 10.8257 87.7675 17.4837C90.8188 20.9347 99.0519 35.0486 91.7604 51.0633C84.469 67.0781 67.7924 67.1441 66.5088 67.0831C65.2252 67.0222 61.0008 66.7934 63.7943 63.6119Z" fill="#DC3E41"/>
</svg>
