<svg width="80" height="80" viewBox="0 0 80 80" fill="none" xmlns="http://www.w3.org/2000/svg">
<g clip-path="url(#clip0_49_5790)">
<path d="M40.0019 79.365C61.7416 79.365 79.3651 61.7415 79.3651 40.0018C79.3651 18.2621 61.7416 0.63855 40.0019 0.63855C18.2622 0.63855 0.638672 18.2621 0.638672 40.0018C0.638672 61.7415 18.2622 79.365 40.0019 79.365Z" fill="#96D5EB"/>
<path d="M37.906 24.6946V29.0655C37.906 29.0655 37.779 30.8294 39.2783 31.5632C40.7776 32.297 42.4145 33.0308 42.4145 33.0308C42.4145 33.0308 44.1467 33.8104 44.1467 31.0623C44.1467 28.3141 44.1467 26.5678 44.1467 26.5678C44.1958 26.1781 44.1198 25.7828 43.9296 25.4391C43.7393 25.0954 43.4447 24.821 43.0883 24.6558C41.8395 24.0666 38.9925 23.3364 38.9925 23.3364C38.9925 23.3364 37.906 23.1423 37.906 24.6946Z" fill="#EE2738"/>
<path d="M52.6208 25.4672H46.7223C46.7223 25.4672 44.7573 25.3261 44.7573 27.5027V31.5068C44.7573 31.5068 44.849 32.5369 46.5424 33.0978C48.2357 33.6587 52.9418 35.6731 52.9418 35.6731C52.9418 35.6731 54.5893 36.6115 54.5435 34.2232C54.4976 31.8349 54.5435 27.5027 54.5435 27.5027C54.5435 27.5027 54.7269 25.4672 52.6208 25.4672Z" fill="#EE2738"/>
<path d="M36.7526 31.5385L42.4641 34.1985C42.8601 34.3762 43.1954 34.666 43.4287 35.0322C43.6619 35.3983 43.7828 35.8247 43.7764 36.2587V38.506C43.7764 38.506 43.9634 40.2699 41.5292 40.3334C39.095 40.3969 35.2074 40.3334 35.2074 40.3334C35.2074 40.3334 32.4557 39.723 33.3835 36.5868C34.3113 33.4506 34.6676 32.2265 34.6676 32.2265C34.7524 32.0382 34.8754 31.8696 35.0288 31.7314C35.1822 31.5932 35.3626 31.4884 35.5587 31.4237C35.7548 31.359 35.9622 31.3358 36.1677 31.3556C36.3732 31.3754 36.5724 31.4377 36.7526 31.5385Z" fill="#EE2738"/>
<path d="M46.7893 33.8669C46.7893 33.8669 45.103 33.3024 44.648 35.278C44.2564 36.9819 44.1823 40.3051 44.1823 40.3051C44.1613 40.8758 44.3454 41.4352 44.7014 41.8817C45.0574 42.3283 45.5616 42.6326 46.1226 42.7393C47.3386 43.0487 48.5966 43.1595 49.8479 43.0674C49.8479 43.0674 51.7318 43.2473 51.7671 40.6791C51.7988 38.5624 51.7671 37.3559 51.7671 37.3559C51.7671 37.3559 51.8694 35.9871 50.1266 35.2004C48.7226 34.5513 46.7893 33.8669 46.7893 33.8669Z" fill="#EE2738"/>
<path d="M39.0459 41.7586H35.444C35.444 41.7586 32.4454 41.5716 32.6217 46.567C32.7981 51.5624 34.869 61.2991 36.3048 63.6698C36.3048 63.6698 40.9368 72.7221 39.6139 64.7281C39.0953 61.5849 39.2399 59.2036 40.4676 57.4397C41.4448 56.0286 41.4977 52.5219 40.9368 49.8267C40.547 48.0667 40.5747 46.2399 41.0179 44.4926C41.3107 43.6954 41.3072 42.0091 39.0459 41.7586Z" fill="#EE2738"/>
<path d="M55.6826 37.8039C55.6826 37.8039 52.4371 36.2234 52.938 40.8237C53.439 45.424 53.894 48.479 52.8851 52.4125C51.8761 56.346 51.5904 61.7753 51.8973 63.8356C52.2501 66.305 53.2873 69.3495 55.0723 62.6502C56.1977 58.4169 58.9529 56.4236 60.3852 54.4763C62.4384 51.6541 62.7912 45.5121 59.9866 41.0706C58.7412 39.1162 55.6826 37.8039 55.6826 37.8039Z" fill="#EE2738"/>
<path d="M45.6497 20.2002C48.2708 17.1098 65.0314 14.3017 62.6925 -6.39238C60.3536 -27.0865 46.9585 -22.1229 39.5607 -21.2797C32.1629 -20.4366 23.2834 -17.9107 23.0823 -4.51911C22.8812 8.87243 32.6321 13.6455 34.4136 16.9335C36.1952 20.2214 36.0964 26.7549 35.6307 27.411C35.1651 28.0672 35.1615 28.7234 30.4801 25.3508C25.7987 21.9782 10.5339 12.0545 9.78604 -0.680862C9.03814 -13.4162 12.8764 -26.7125 30.9529 -32.4311C49.0293 -38.1497 62.6008 -31.02 68.1253 -24.5641C70.9864 -21.2197 78.7087 -7.5248 71.8718 8.02222C65.035 23.5693 49.3892 23.6363 48.1756 23.5728C46.962 23.5093 43.0391 23.2835 45.6497 20.2002Z" fill="#EE2738"/>
</g>
<defs>
<clipPath id="clip0_49_5790">
<rect width="80" height="80" fill="white"/>
</clipPath>
</defs>
</svg>
